<?xml version="1.0" encoding="utf-8"?>
<!-- Generator: Adobe Illustrator 26.3.1, SVG Export Plug-In . SVG Version: 6.00 Build 0)  -->
<svg version="1.1" xmlns="http://www.w3.org/2000/svg" xmlns:xlink="http://www.w3.org/1999/xlink" x="0px" y="0px"
	 viewBox="0 0 36 35" style="enable-background:new 0 0 36 35;" xml:space="preserve">
<style type="text/css">
	.st0{fill:#B0242A;}
	.st1{fill:#4D4D4D;}
	.st2{fill:#AC2A2D;}
	.st3{opacity:0.79;fill:#AC2A2D;}
	.st4{opacity:0.8;fill:#B0242A;}
	.st5{fill:#FFFFFF;}
	.st6{fill:#CDAE80;}
	.st7{opacity:0.8;clip-path:url(#SVGID_00000102544167252961045950000012453182913976970652_);}
	.st8{fill:#CEAF80;}
	.st9{opacity:0.63;}
	.st10{fill:#1F140F;}
	.st11{fill:#C64144;}
	.st12{fill:#CEAE80;}
	.st13{fill:#9E3733;}
	.st14{fill:#CAD1D9;}
	.st15{opacity:0.26;}
</style>
<g id="Capa_2">
</g>
<g id="Capa_3">
</g>
<g id="Capa_1">
	<g>
		<path class="st13" d="M18.07,6.07c3.65,0,7.3,0,10.94,0c1.42,0,2.64,0.47,3.6,1.55c0.33,0.37,0.36,0.62-0.1,0.94
			c-4.65,3.23-9.28,6.47-13.91,9.73c-0.43,0.3-0.74,0.31-1.18,0c-4.61-3.25-9.23-6.48-13.85-9.7C3.06,8.25,3.05,8,3.44,7.57
			C4.41,6.53,5.6,6.08,7,6.07C10.69,6.07,14.38,6.07,18.07,6.07z"/>
		<path class="st13" d="M18,28.93c-3.63,0-7.25,0-10.88,0c-0.6,0-1.19-0.07-1.77-0.25c-0.51-0.15-0.52-0.38-0.13-0.72
			c1.82-1.62,3.62-3.25,5.43-4.87c1.15-1.03,2.31-2.06,3.45-3.11c0.34-0.31,0.6-0.36,0.97-0.08c0.62,0.46,1.27,0.89,1.91,1.32
			c0.78,0.53,1.27,0.52,2.07-0.02c0.66-0.45,1.32-0.9,1.96-1.36c0.3-0.22,0.53-0.21,0.81,0.05c2.99,2.7,5.98,5.39,8.98,8.07
			c0.39,0.35,0.35,0.57-0.15,0.72c-0.58,0.17-1.16,0.25-1.77,0.25C25.26,28.92,21.63,28.93,18,28.93z"/>
		<path class="st13" d="M2.33,18.19c0-2.1,0-4.2,0-6.3c0-0.21-0.09-0.48,0.12-0.62c0.23-0.15,0.41,0.1,0.57,0.22
			c2.9,2.02,5.79,4.06,8.69,6.08c0.42,0.29,0.54,0.5,0.1,0.89c-2.81,2.5-5.6,5.02-8.4,7.52c-0.58,0.52-0.69,0.48-0.9-0.25
			c-0.15-0.51-0.2-1.04-0.2-1.57C2.33,22.17,2.33,20.18,2.33,18.19z"/>
		<path class="st13" d="M33.68,18.22c0,1.99,0,3.98,0,5.97c0,0.56-0.06,1.1-0.23,1.63c-0.2,0.62-0.31,0.66-0.79,0.23
			c-2.01-1.79-4.02-3.6-6.02-5.4c-0.82-0.74-1.64-1.48-2.47-2.21c-0.35-0.3-0.39-0.52,0.03-0.81c2.96-2.06,5.9-4.13,8.86-6.19
			c0.14-0.1,0.28-0.27,0.47-0.18c0.22,0.11,0.15,0.35,0.15,0.54C33.68,13.93,33.68,16.07,33.68,18.22z"/>
	</g>
</g>
</svg>
