<?xml version="1.0" encoding="UTF-8" standalone="no" ?>
<!DOCTYPE svg PUBLIC "-//W3C//DTD SVG 1.1//EN" "http://www.w3.org/Graphics/SVG/1.1/DTD/svg11.dtd">
<svg xmlns="http://www.w3.org/2000/svg" xmlns:xlink="http://www.w3.org/1999/xlink" version="1.1" width="1080" height="1080" viewBox="0 0 1080 1080" xml:space="preserve">
<desc>Created with Fabric.js 5.2.4</desc>
<defs>
</defs>
<g transform="matrix(1 0 0 1 540 540)" id="57fa1e5e-b623-4fcf-b37d-2dc8b6e5ca1b"  >
<rect style="stroke: none; stroke-width: 1; stroke-dasharray: none; stroke-linecap: butt; stroke-dashoffset: 0; stroke-linejoin: miter; stroke-miterlimit: 4; fill: rgb(255,255,255); fill-rule: nonzero; opacity: 1; visibility: hidden;" vector-effect="non-scaling-stroke"  x="-540" y="-540" rx="0" ry="0" width="1080" height="1080" />
</g>
<g transform="matrix(1 0 0 1 540 540)" id="d84b11c9-8c5d-4b27-95f0-f3bc5ae791e2"  >
</g>
<g transform="matrix(34.11 0 0 34.11 540 540)"  >
<g style="" vector-effect="non-scaling-stroke"   >
		<g transform="matrix(1 0 0 1 0.01 -5.21)"  >
<path style="stroke: none; stroke-width: 1; stroke-dasharray: none; stroke-linecap: butt; stroke-dashoffset: 0; stroke-linejoin: miter; stroke-miterlimit: 4; fill: rgb(158,55,51); fill-rule: nonzero; opacity: 1;" vector-effect="non-scaling-stroke"  transform=" translate(-18.01, -12.29)" d="M 18.07 6.07 C 21.72 6.07 25.37 6.07 29.009999999999998 6.07 C 30.43 6.07 31.65 6.54 32.61 7.62 C 32.94 7.99 32.97 8.24 32.51 8.56 C 27.86 11.790000000000001 23.229999999999997 15.030000000000001 18.599999999999998 18.29 C 18.169999999999998 18.59 17.86 18.599999999999998 17.419999999999998 18.29 C 12.809999999999999 15.04 8.189999999999998 11.809999999999999 3.5699999999999985 8.59 C 3.06 8.25 3.05 8 3.44 7.57 C 4.41 6.53 5.6 6.08 7 6.07 C 10.69 6.07 14.38 6.07 18.07 6.07 z" stroke-linecap="round" />
</g>
		<g transform="matrix(1 0 0 1 0 6.81)"  >
<path style="stroke: none; stroke-width: 1; stroke-dasharray: none; stroke-linecap: butt; stroke-dashoffset: 0; stroke-linejoin: miter; stroke-miterlimit: 4; fill: rgb(158,55,51); fill-rule: nonzero; opacity: 1;" vector-effect="non-scaling-stroke"  transform=" translate(-18, -24.31)" d="M 18 28.93 C 14.370000000000001 28.93 10.75 28.93 7.119999999999999 28.93 C 6.52 28.93 5.93 28.86 5.35 28.68 C 4.84 28.53 4.83 28.3 5.22 27.96 C 7.04 26.34 8.84 24.71 10.649999999999999 23.09 C 11.799999999999999 22.06 12.959999999999999 21.03 14.099999999999998 19.98 C 14.439999999999998 19.67 14.699999999999998 19.62 15.069999999999999 19.900000000000002 C 15.689999999999998 20.360000000000003 16.34 20.790000000000003 16.979999999999997 21.220000000000002 C 17.759999999999998 21.750000000000004 18.249999999999996 21.740000000000002 19.049999999999997 21.200000000000003 C 19.709999999999997 20.750000000000004 20.369999999999997 20.300000000000004 21.009999999999998 19.840000000000003 C 21.31 19.620000000000005 21.54 19.630000000000003 21.819999999999997 19.890000000000004 C 24.809999999999995 22.590000000000003 27.799999999999997 25.280000000000005 30.799999999999997 27.960000000000004 C 31.189999999999998 28.310000000000006 31.15 28.530000000000005 30.65 28.680000000000003 C 30.07 28.850000000000005 29.49 28.930000000000003 28.88 28.930000000000003 C 25.26 28.92 21.63 28.93 18 28.93 z" stroke-linecap="round" />
</g>
		<g transform="matrix(1 0 0 1 -10.8 1.28)"  >
<path style="stroke: none; stroke-width: 1; stroke-dasharray: none; stroke-linecap: butt; stroke-dashoffset: 0; stroke-linejoin: miter; stroke-miterlimit: 4; fill: rgb(158,55,51); fill-rule: nonzero; opacity: 1;" vector-effect="non-scaling-stroke"  transform=" translate(-7.2, -18.78)" d="M 2.33 18.19 C 2.33 16.09 2.33 13.990000000000002 2.33 11.89 C 2.33 11.68 2.24 11.41 2.45 11.270000000000001 C 2.68 11.120000000000001 2.8600000000000003 11.370000000000001 3.02 11.490000000000002 C 5.92 13.510000000000002 8.81 15.55 11.709999999999999 17.57 C 12.129999999999999 17.86 12.25 18.07 11.809999999999999 18.46 C 8.999999999999998 20.96 6.209999999999999 23.48 3.4099999999999984 25.98 C 2.8299999999999983 26.5 2.7199999999999984 26.46 2.5099999999999985 25.73 C 2.3599999999999985 25.22 2.3099999999999983 24.69 2.3099999999999983 24.16 C 2.33 22.17 2.33 20.18 2.33 18.19 z" stroke-linecap="round" />
</g>
		<g transform="matrix(1 0 0 1 10.79 1.28)"  >
<path style="stroke: none; stroke-width: 1; stroke-dasharray: none; stroke-linecap: butt; stroke-dashoffset: 0; stroke-linejoin: miter; stroke-miterlimit: 4; fill: rgb(158,55,51); fill-rule: nonzero; opacity: 1;" vector-effect="non-scaling-stroke"  transform=" translate(-28.79, -18.78)" d="M 33.68 18.22 C 33.68 20.209999999999997 33.68 22.2 33.68 24.189999999999998 C 33.68 24.749999999999996 33.62 25.29 33.45 25.819999999999997 C 33.25 26.439999999999998 33.14 26.479999999999997 32.660000000000004 26.049999999999997 C 30.650000000000006 24.259999999999998 28.640000000000004 22.449999999999996 26.640000000000004 20.65 C 25.820000000000004 19.91 25.000000000000004 19.169999999999998 24.170000000000005 18.439999999999998 C 23.820000000000004 18.139999999999997 23.780000000000005 17.919999999999998 24.200000000000006 17.63 C 27.160000000000007 15.569999999999999 30.10000000000001 13.5 33.06 11.439999999999998 C 33.2 11.339999999999998 33.34 11.169999999999998 33.53 11.259999999999998 C 33.75 11.369999999999997 33.68 11.609999999999998 33.68 11.799999999999997 C 33.68 13.93 33.68 16.07 33.68 18.22 z" stroke-linecap="round" />
</g>
</g>
</g>
</svg>