<?xml version="1.0" encoding="UTF-8" standalone="no" ?>
<!DOCTYPE svg PUBLIC "-//W3C//DTD SVG 1.1//EN" "http://www.w3.org/Graphics/SVG/1.1/DTD/svg11.dtd">
<svg xmlns="http://www.w3.org/2000/svg" xmlns:xlink="http://www.w3.org/1999/xlink" version="1.1" width="1080" height="1080" viewBox="0 0 1080 1080" xml:space="preserve">
<desc>Created with Fabric.js 5.2.4</desc>
<defs>
</defs>
<g transform="matrix(1 0 0 1 540 540)" id="b27c1115-fd77-43fd-ae14-784c3d7fcc73"  >
<rect style="stroke: none; stroke-width: 1; stroke-dasharray: none; stroke-linecap: butt; stroke-dashoffset: 0; stroke-linejoin: miter; stroke-miterlimit: 4; fill: rgb(255,255,255); fill-rule: nonzero; opacity: 1; visibility: hidden;" vector-effect="non-scaling-stroke"  x="-540" y="-540" rx="0" ry="0" width="1080" height="1080" />
</g>
<g transform="matrix(1 0 0 1 540 540)" id="468133f8-b305-45c2-bf09-68e92f420db8"  >
</g>
<g transform="matrix(67.47 0 0 67.47 540 540)"  >
<g style="" vector-effect="non-scaling-stroke"   >
		<g transform="matrix(1 0 0 1 0 0)"  >
<path style="stroke: none; stroke-width: 1; stroke-dasharray: none; stroke-linecap: butt; stroke-dashoffset: 0; stroke-linejoin: miter; stroke-miterlimit: 4; fill: rgb(176,36,42); fill-rule: nonzero; opacity: 1;" vector-effect="non-scaling-stroke"  transform=" translate(-5.07, -7.81)" d="M 7.873 0.853 C 6.168 -0.28400000000000003 3.9650000000000003 -0.28400000000000003 2.261 0.853 C 0.065 2.316 -0.638 5.167 0.626 7.484 L 5.067 15.626 L 9.508 7.484 C 10.772 5.167 10.07 2.316 7.873 0.853 z M 8.631 7.006 L 5.068 13.539000000000001 L 1.504 7.006 C 0.49 5.146 1.053 2.859 2.816 1.685 C 3.5 1.229 4.283 1 5.067 1 C 5.851 1 6.634 1.228 7.318 1.6840000000000002 C 9.081 2.859 9.645 5.146 8.631 7.006 z" stroke-linecap="round" />
</g>
		<g transform="matrix(1 0 0 1 0 -3.23)"  >
<path style="stroke: none; stroke-width: 1; stroke-dasharray: none; stroke-linecap: butt; stroke-dashoffset: 0; stroke-linejoin: miter; stroke-miterlimit: 4; fill: rgb(176,36,42); fill-rule: nonzero; opacity: 1;" vector-effect="non-scaling-stroke"  transform=" translate(-5.07, -4.58)" d="M 5.067 2.083 C 3.689 2.083 2.567 3.205 2.567 4.583 C 2.567 5.961 3.689 7.083 5.067 7.083 C 6.445 7.083 7.567 5.961 7.567 4.583 C 7.567 3.205 6.446 2.083 5.067 2.083 z M 5.067 6.083 C 4.24 6.083 3.567 5.41 3.567 4.583 C 3.567 3.7560000000000002 4.24 3.083 5.067 3.083 C 5.894 3.083 6.567 3.7560000000000002 6.567 4.583 C 6.567 5.41 5.894 6.083 5.067 6.083 z" stroke-linecap="round" />
</g>
</g>
</g>
<g transform="matrix(NaN NaN NaN NaN 0 0)"  >
<g style=""   >
</g>
</g>
</svg>