<?xml version="1.0" encoding="UTF-8" standalone="no" ?>
<!DOCTYPE svg PUBLIC "-//W3C//DTD SVG 1.1//EN" "http://www.w3.org/Graphics/SVG/1.1/DTD/svg11.dtd">
<svg xmlns="http://www.w3.org/2000/svg" xmlns:xlink="http://www.w3.org/1999/xlink" version="1.1" width="1080" height="1080" viewBox="0 0 1080 1080" xml:space="preserve">
<desc>Created with Fabric.js 5.2.4</desc>
<defs>
</defs>
<g transform="matrix(1 0 0 1 540 540)" id="81cbaeb2-a086-4694-b91f-2dae48fc9a7c"  >
<rect style="stroke: none; stroke-width: 1; stroke-dasharray: none; stroke-linecap: butt; stroke-dashoffset: 0; stroke-linejoin: miter; stroke-miterlimit: 4; fill: rgb(255,255,255); fill-rule: nonzero; opacity: 1; visibility: hidden;" vector-effect="non-scaling-stroke"  x="-540" y="-540" rx="0" ry="0" width="1080" height="1080" />
</g>
<g transform="matrix(1 0 0 1 540 540)" id="78d40cfc-8ae0-4cfe-8094-5d8fb1448c7f"  >
</g>
<g transform="matrix(2.1 0 0 2.1 539.57 539.57)" id="a23b5a1a-06f0-4957-aff7-67ad1090fadc"  >
<path style="stroke: rgb(255,255,255); stroke-width: 0; stroke-dasharray: none; stroke-linecap: butt; stroke-dashoffset: 0; stroke-linejoin: miter; stroke-miterlimit: 4; fill: rgb(255,255,255); fill-rule: nonzero; opacity: 1;" vector-effect="non-scaling-stroke"  transform=" translate(-255, -255)" d="M 255 0 C 114.75 0 0 114.75 0 255 C 0 395.25 114.75 510 255 510 C 395.25 510 510 395.25 510 255 C 510 114.75 395.25 0 255 0 z M 255 76.5 C 298.35 76.5 331.5 109.65 331.5 153 C 331.5 196.35 298.35 229.5 255 229.5 C 211.65 229.5 178.5 196.35 178.5 153 C 178.5 109.65 211.65 76.5 255 76.5 z M 255 438.6 C 191.25 438.6 135.15 405.451 102 357 C 102 306 204 277.95 255 277.95 C 306 277.95 408 306 408 357 C 374.85 405.45 318.75 438.6 255 438.6 z" stroke-linecap="round" />
</g>
</svg>