<?xml version="1.0" encoding="utf-8"?>
<!-- Generator: Adobe Illustrator 26.3.1, SVG Export Plug-In . SVG Version: 6.00 Build 0)  -->
<svg version="1.1" xmlns="http://www.w3.org/2000/svg" xmlns:xlink="http://www.w3.org/1999/xlink" x="0px" y="0px"
	 viewBox="0 0 203 107" style="enable-background:new 0 0 203 107;" xml:space="preserve">
<style type="text/css">
	.st0{fill:#B0242A;}
	.st1{fill:#4D4D4D;}
	.st2{fill:#AC2A2D;}
	.st3{opacity:0.79;fill:#AC2A2D;}
	.st4{opacity:0.8;fill:#B0242A;}
	.st5{fill:#FFFFFF;}
	.st6{fill:#CDAE80;}
	.st7{opacity:0.8;clip-path:url(#SVGID_00000129893475967798187080000006032235532652524940_);}
	.st8{fill:#CEAF80;}
	.st9{opacity:0.8;clip-path:url(#SVGID_00000129207944996872488630000016563953132102115744_);}
	.st10{opacity:0.63;}
	.st11{fill:#1F140F;}
	.st12{fill:#C64144;}
	.st13{fill:#CEAE80;}
	.st14{fill:#9E3733;}
	.st15{fill:#CAD1D9;}
	.st16{opacity:0.26;}
</style>
<g id="Capa_2">
</g>
<g id="Capa_3">
</g>
<g id="Capa_1">
	<g>
		<g>
			<g>
				<path class="st2" d="M41.18,21.99c1.69,1,3.36,2.03,5.07,2.99c0.6,0.34,0.79,0.74,0.77,1.4c-0.07,3.71-0.1,7.43-0.12,11.14
					c0,0.62-0.2,1-0.77,1.31c-1.73,0.92-3.41,1.94-5.14,2.86c-0.67,0.36-0.92,0.82-0.93,1.56C40,49.48,39.9,55.7,39.86,61.93
					c-0.01,0.84-0.26,1.32-1.01,1.69c-1.17,0.57-2.3,1.24-3.42,1.91c-0.76,0.45-0.92,0.21-0.91-0.58
					c0.12-7.74,0.31-15.47,0.25-23.21c-0.02-2.13,0.67-3.27,2.54-4.04c1.26-0.52,2.39-1.36,3.61-1.99c0.53-0.28,0.73-0.62,0.73-1.21
					c-0.01-1.62-0.07-3.24,0.09-4.85c0.11-1.16-0.52-1.57-1.34-2.02c-1.4-0.76-1.38-0.79-1.4,0.82c-0.01,1.24-0.05,2.48-0.04,3.71
					c0.01,0.58-0.19,0.96-0.71,1.24c-1.27,0.69-2.52,1.41-3.77,2.14c-0.53,0.31-1,0.3-1.53-0.03c-1.25-0.79-2.53-1.54-3.82-2.27
					c-0.51-0.29-0.71-0.64-0.69-1.24c0.05-1.48,0.02-2.96,0.05-4.43c0.02-0.78-0.19-0.8-0.9-0.54c-1.65,0.59-2.26,1.64-2.07,3.36
					c0.13,1.15,0.05,2.34-0.03,3.5c-0.06,0.86,0.21,1.4,0.98,1.83c1.63,0.89,3.18,1.93,4.82,2.81c0.73,0.39,0.93,0.9,0.91,1.65
					c-0.11,6.46-0.2,12.93-0.3,19.39c-0.03,1.79-0.05,3.58-0.04,5.36c0,0.67-0.18,0.81-0.77,0.46c-1.24-0.75-2.47-1.5-3.73-2.21
					c-0.56-0.32-0.56-0.78-0.56-1.32c0.08-6.29,0.13-12.58,0.24-18.87c0.01-0.81-0.28-1.25-0.95-1.63
					c-1.65-0.92-3.26-1.93-4.91-2.87c-0.57-0.33-0.82-0.71-0.81-1.4c0.07-3.64,0.1-7.28,0.1-10.93c0-0.75,0.27-1.17,0.93-1.53
					c3.38-1.85,6.72-3.75,10.09-5.63c0.23-0.13,0.55-0.36,0.73-0.29c0.35,0.13,0.18,0.54,0.18,0.83c-0.03,2.92-0.03,5.84-0.12,8.76
					c-0.03,0.93,0.45,1.36,1.2,1.53c0.67,0.15,1.47-0.69,1.49-1.5c0.05-2.92,0.08-5.85,0.12-8.77c0.01-1.07,0.1-1.13,1.01-0.59
					C37.81,19.98,39.5,20.98,41.18,21.99C41.18,21.99,41.18,21.99,41.18,21.99z"/>
				<path class="st6" d="M54.78,45.46c-0.04,2.65-0.14,5.15-0.08,7.65c0.03,1.24-0.41,1.9-1.49,2.48c-3.15,1.68-6.24,3.48-9.36,5.23
					c-1.52,0.86-1.55,0.85-1.53-0.92c0.06-4.6,0.28-9.21,0.16-13.81c-0.05-1.83,0.78-2.72,2.11-3.5c1.34-0.77,2.67-1.57,4.05-2.25
					c0.75-0.37,0.93-0.91,0.94-1.64c0.02-3.13,0.06-6.25,0.08-9.38c0-0.65-0.23-1.54,0.27-1.84c0.52-0.31,1.15,0.36,1.69,0.7
					c0.84,0.53,1.7,1.04,2.58,1.52c0.58,0.32,0.82,0.73,0.8,1.41c-0.08,3.54-0.14,7.08-0.14,10.62c0,0.91-0.3,1.42-1.12,1.85
					c-1.77,0.91-3.47,1.96-5.21,2.94c-0.54,0.31-0.75,0.72-0.73,1.35c0.04,1.06,0.01,2.13-0.01,3.2c-0.01,0.47-0.2,1.06,0.54,1.08
					c0.64,0.02,0.99-0.45,1.06-1.04c0.07-0.65,0.03-1.31,0.04-1.96c0-0.35,0-0.73,0.34-0.93C51.36,47.27,52.94,46.31,54.78,45.46z"
					/>
				<path class="st6" d="M17.94,57.69c-1.6-0.95-3.18-1.93-4.8-2.83c-0.74-0.41-1.09-0.89-1.06-1.79c0.09-2.33,0.07-4.67,0.11-7.01
					c0.02-1.02,0.2-1.12,1.08-0.62c1.16,0.67,2.3,1.39,3.46,2.06c0.54,0.31,0.8,0.7,0.75,1.33c-0.05,0.58-0.01,1.17-0.04,1.75
					c-0.05,0.84,0.65,0.97,1.18,1.21c0.31,0.14,0.4-0.17,0.41-0.42c0.04-1.44,0.07-2.88,0.09-4.32c0-0.48-0.38-0.7-0.74-0.92
					c-1.71-1.02-3.42-2.06-5.15-3.06c-0.63-0.36-0.96-0.78-0.94-1.55c0.06-3.61,0.08-7.21,0.09-10.82c0-0.8,0.32-1.25,1.03-1.6
					c1.11-0.55,2.17-1.18,3.24-1.81c0.72-0.43,1.06-0.38,1.04,0.58c-0.06,3.33-0.04,6.67-0.15,10c-0.04,1.09,0.19,1.78,1.21,2.31
					c1.68,0.87,3.25,1.93,4.9,2.86c0.68,0.38,0.86,0.91,0.84,1.61c-0.1,5.04-0.19,10.09-0.28,15.13c-0.01,0.4,0.19,0.9-0.25,1.13
					c-0.42,0.23-0.77-0.17-1.11-0.37c-1.63-0.96-3.26-1.93-4.88-2.89C17.95,57.67,17.95,57.68,17.94,57.69z"/>
			</g>
			<g>
				<path class="st2" d="M72.98,34.62l14.55-2.39c-0.23-5.8-0.34-11.82-0.34-18.41c0-2.05,5.34-2.05,5.46,0l0.8,17.39l4.89-1.02
					c1.48-0.34,1.93,1.82,0.45,2.16l-5.23,1.36c0.34,11.82,0.34,21.94,0.34,35.58c0,2.39-4.32,2.39-4.43,0
					c-0.68-12.39-1.36-22.96-1.82-34.33c-4.43,0.91-9.55,1.93-14.55,2.84c0.68,10.8,1.14,21.26,1.59,36.6c0.11,2.5-5.34,2.96-5.68,0
					c-1.59-13.75-2.39-23.98-2.84-35.35l-2.5,0.34c-1.36,0-1.59-2.84-0.11-3.18l2.61-0.45c-0.23-6.25-0.23-12.84-0.23-20.8
					c0-2.96,5.46-2.84,5.68,0C72.07,22.35,72.63,28.6,72.98,34.62z"/>
				<path class="st2" d="M118.78,28.37c-0.8-4.32-3.07-7.05-7.39-7.16c-3.07,0-6.02,2.5-6.25,6.25
					c-0.45,11.03,20.8,13.19,20.57,29.21c-0.11,9.55-7.27,12.62-14.32,12.28c-7.27-0.34-12.73-6.25-14.09-15.35
					c-0.23-1.7,2.96-2.39,3.18-0.34c1.25,7.5,5.46,11.48,9.78,12.16c5.34,0.8,10.34-2.39,9.66-8.98
					c-0.91-9.43-21.14-14.66-20.12-28.76c0.57-6.48,5.12-9.78,10.34-9.89c5.46-0.11,10.34,2.96,11.94,10
					C122.53,29.96,119.12,30.08,118.78,28.37z"/>
				<path class="st2" d="M146.29,20.08c-1.14,0.11-11.03-0.45-11.71,1.14c-1.59,3.64-1.59,13.07-0.91,22.39
					c4.77-0.91,9.89-1.7,20.01-3.52c1.48-0.34,1.82,1.7,0.34,2.16l-20.12,4.09c0.91,9.32,2.61,17.96,4.21,19.66
					c1.93,2.16,11.71-3.98,14.32-5.34c1.25-0.57,2.84,1.59,1.59,2.5c-4.32,2.96-16.25,8.18-20.46,5.46
					c-2.61-1.7-4.55-11.03-5.57-21.03l-1.36,0.23c-1.25,0.23-1.7-2.16-0.45-2.5l1.48-0.34c-0.91-11.03-0.57-22.17,1.25-25.01
					c1.82-2.73,12.62-2.5,17.16-2.5C147.2,17.46,147.65,19.96,146.29,20.08z"/>
				<path class="st6" d="M185.84,60.66l4.77,7.16c1.14,1.71-1.25,3.52-2.05,2.27l-4.89-6.59c-2.39,2.5-5.34,4.21-8.64,4.43
					c-10.91,0.91-18.07-10-18.41-22.73c-0.45-18.76,7.5-25.01,14.44-25.8c8.64-1.02,17.39,5.68,18.87,21.94
					C190.62,48.38,189.03,55.54,185.84,60.66z M173.8,65.54c2.96,0.11,5.57-2.05,7.39-5.57l-8.53-11.82
					c-0.8-1.14,2.16-3.86,3.75-1.48l6.25,9.43c1.25-4.09,1.82-8.98,1.48-14.44c-0.68-9.66-3.07-20.46-10.68-20.01
					c-7.39,0.45-10,14.44-9.89,22.85C163.68,57.36,169.36,65.43,173.8,65.54z"/>
			</g>
		</g>
		<g>
			<path class="st11" d="M47.3,91.99c-0.17,0-0.24-0.07-0.24-0.24v-8.06c0-0.17,0.07-0.24,0.24-0.24h2.25
				c1.79,0,3.05,1.32,3.05,2.98c0,1.62-1.27,2.97-3.05,2.97h-1v2.36c0,0.17-0.07,0.24-0.24,0.24H47.3z M49.32,88.34
				c1.16,0,1.79-0.63,1.79-1.91s-0.63-1.91-1.79-1.92h-0.76v3.83H49.32z"/>
			<path class="st11" d="M53.46,91.99c-0.17,0-0.24-0.07-0.24-0.24v-5.69c0-0.17,0.07-0.24,0.24-0.24h0.59
				c0.17,0,0.17,0.08,0.24,0.24l0.12,0.45h0.02c0.51-0.78,1.1-0.77,1.61-0.78c0.17,0,0.21,0.01,0.21,0.18v0.89
				c0,0.31-0.26,0.18-0.49,0.18c-0.74,0-1.13,0.4-1.13,1.15v3.63c0,0.17-0.07,0.24-0.24,0.24H53.46z"/>
			<path class="st11" d="M56.37,88.92c0-1.77,0.59-3.25,2.87-3.25c2.28,0,2.87,1.48,2.87,3.24c0,1.77-0.59,3.23-2.87,3.23
				C56.96,92.14,56.37,90.69,56.37,88.92z M60.69,88.91c0-1.17-0.26-2.17-1.45-2.17c-1.19,0-1.45,1-1.45,2.17
				c0,1.19,0.26,2.16,1.45,2.16C60.43,91.07,60.69,90.1,60.69,88.91z"/>
			<path class="st11" d="M63.37,94.6c-0.14,0-0.21-0.07-0.14-0.21l1.11-2.49l-2.24-5.86c-0.07-0.14-0.02-0.21,0.14-0.21h1.09
				c0.17,0,0.26,0.07,0.31,0.23l1.43,4.53l1.45-4.53c0.06-0.15,0.15-0.23,0.32-0.23h1.02c0.14,0,0.21,0.07,0.14,0.21l-3.25,8.35
				c-0.07,0.14-0.17,0.21-0.33,0.21H63.37z"/>
			<path class="st11" d="M72.85,91.25c0.07,0.11,0.08,0.2-0.01,0.31c-0.23,0.26-1.09,0.58-2.1,0.58c-2.19,0-2.79-1.51-2.79-3.17
				c0-1.83,0.71-3.3,2.63-3.3c1.44,0,2.54,0.83,2.54,2.55c0,0.91-0.31,1.19-1.29,1.19H69.4c0.09,1,0.45,1.73,1.49,1.73
				c0.46,0,0.91-0.14,1.4-0.3c0.24-0.07,0.27-0.02,0.31,0.02L72.85,91.25z M71.23,88.41c0.37,0,0.46-0.05,0.46-0.4
				c0-0.7-0.42-1.34-1.04-1.34c-0.87,0-1.17,0.81-1.25,1.74H71.23z"/>
			<path class="st11" d="M78.29,91.25c0.07,0.11,0.08,0.2-0.01,0.31c-0.21,0.25-0.89,0.58-1.9,0.58c-2.16,0-2.75-1.52-2.75-3.24
				c0-1.74,0.6-3.23,2.87-3.23c0.79,0,1.54,0.37,1.78,0.58c0.08,0.07,0.12,0.15,0.01,0.31l-0.25,0.38c-0.06,0.08-0.2,0.06-0.31,0.02
				c-0.24-0.08-0.65-0.3-1.17-0.3c-1.17,0-1.51,1.08-1.51,2.24c0,1.2,0.34,2.23,1.49,2.23c0.46,0,0.82-0.17,1.19-0.3
				c0.13-0.05,0.25-0.06,0.31,0.02L78.29,91.25z"/>
			<path class="st11" d="M80.99,91.99c-1.07,0-1.64-0.6-1.64-1.85v-3.38h-0.62c-0.17,0-0.24-0.07-0.24-0.24v-0.46
				c0-0.17,0.07-0.24,0.24-0.24h0.62v-0.91c0-0.17,0.08-0.18,0.24-0.24l0.95-0.36c0.15-0.06,0.24,0.07,0.24,0.24v1.27h0.75
				c0.17,0,0.24,0.07,0.24,0.24v0.46c0,0.17-0.07,0.24-0.24,0.24h-0.75v3.42c0,0.58,0.3,0.82,0.57,0.82h0.08
				c0.17,0,0.24,0.07,0.24,0.24v0.52c0,0.17-0.07,0.24-0.24,0.24H80.99z"/>
			<path class="st11" d="M81.97,88.92c0-1.77,0.59-3.25,2.87-3.25c2.28,0,2.87,1.48,2.87,3.24c0,1.77-0.59,3.23-2.87,3.23
				C82.56,92.14,81.97,90.69,81.97,88.92z M86.29,88.91c0-1.17-0.26-2.17-1.45-2.17c-1.19,0-1.45,1-1.45,2.17
				c0,1.19,0.26,2.16,1.45,2.16C86.03,91.07,86.29,90.1,86.29,88.91z"/>
			<path class="st11" d="M89.59,89.3c-0.89-0.27-1.26-0.94-1.26-1.72c0-1.09,0.77-1.91,2.22-1.91c1.01,0,1.8,0.32,2.06,0.58
				c0.05,0.05,0.12,0.13,0,0.31l-0.25,0.38c-0.05,0.11-0.2,0.06-0.31,0.02c-0.43-0.15-0.87-0.3-1.38-0.3c-0.7,0-1,0.31-1,0.77
				c0,0.27,0.13,0.49,0.46,0.58l1.39,0.4c1.03,0.3,1.35,0.87,1.35,1.79c0,1.28-1.16,1.92-2.47,1.92c-1,0-1.91-0.27-2.13-0.58
				c-0.08-0.12-0.08-0.2-0.01-0.31l0.25-0.38c0.06-0.08,0.2-0.06,0.31-0.02c0.46,0.15,0.94,0.3,1.52,0.3c0.98,0,1.19-0.42,1.19-0.79
				c0-0.37-0.24-0.52-0.93-0.74L89.59,89.3z"/>
			<path class="st11" d="M101.49,91.99c-0.17,0-0.2-0.07-0.24-0.24l-0.12-0.5h-0.02c-0.49,0.62-1.2,0.89-2.1,0.89
				c-1.35,0-2.51-0.77-2.51-3.21c0-2.47,1.17-3.25,2.55-3.25c1.01,0,1.53,0.42,1.83,0.87h0.02v-3.1c0-0.17,0.07-0.24,0.24-0.24h0.95
				c0.17,0,0.24,0.07,0.24,0.24v8.3c0,0.17-0.07,0.24-0.24,0.24H101.49z M100.9,88.93c0-1.61-0.6-2.25-1.65-2.25
				c-0.82,0-1.33,0.4-1.33,2.25c0,1.79,0.47,2.22,1.34,2.22C100.32,91.15,100.9,90.51,100.9,88.93z"/>
			<path class="st11" d="M107.84,91.25c0.07,0.11,0.08,0.2-0.01,0.31c-0.23,0.26-1.09,0.58-2.1,0.58c-2.19,0-2.79-1.51-2.79-3.17
				c0-1.83,0.71-3.3,2.63-3.3c1.44,0,2.54,0.83,2.54,2.55c0,0.91-0.31,1.19-1.29,1.19h-2.43c0.09,1,0.45,1.73,1.49,1.73
				c0.46,0,0.91-0.14,1.4-0.3c0.24-0.07,0.27-0.02,0.31,0.02L107.84,91.25z M106.21,88.41c0.37,0,0.46-0.05,0.46-0.4
				c0-0.7-0.42-1.34-1.04-1.34c-0.87,0-1.17,0.81-1.25,1.74H106.21z"/>
			<path class="st11" d="M112.08,91.99c-0.17,0-0.24-0.07-0.24-0.24v-8.06c0-0.17,0.07-0.24,0.24-0.24h1.02
				c0.17,0,0.24,0.07,0.24,0.24v8.06c0,0.17-0.07,0.24-0.24,0.24H112.08z"/>
			<path class="st11" d="M118.05,91.99c-0.15,0-0.23-0.07-0.23-0.24v-3.34c0-0.91-0.26-1.73-1.08-1.73c-0.84,0-1.25,0.63-1.25,1.85
				v3.23c0,0.17-0.07,0.24-0.24,0.24h-0.95c-0.17,0-0.24-0.07-0.24-0.24v-5.69c0-0.17,0.07-0.24,0.24-0.24h0.59
				c0.17,0,0.2,0.07,0.24,0.24l0.12,0.49h0.02c0.28-0.56,0.97-0.87,1.58-0.87c1.32,0,2.38,0.84,2.38,2.32v3.75
				c0,0.17-0.07,0.24-0.23,0.24H118.05z"/>
			<path class="st11" d="M124.27,91.27h-0.02c-0.3,0.45-0.82,0.87-1.83,0.87c-1.38,0-2.55-0.78-2.55-3.25
				c0-2.44,1.16-3.21,2.51-3.21c0.9,0,1.61,0.27,2.1,0.89h0.02l0.12-0.5c0.04-0.17,0.07-0.24,0.24-0.24h0.59
				c0.17,0,0.24,0.07,0.24,0.24v5.57c0,1.87-1.16,3.07-2.83,3.07c-1,0-2.21-0.36-2.49-0.58c-0.08-0.07-0.08-0.13-0.01-0.31l0.19-0.5
				c0.04-0.1,0.19-0.06,0.31-0.02c0.31,0.08,1.3,0.28,1.99,0.28c0.85,0,1.42-0.74,1.42-1.81V91.27z M124.27,88.89
				c0-1.58-0.58-2.22-1.64-2.22c-0.87,0-1.34,0.43-1.34,2.22c0,1.85,0.51,2.25,1.33,2.25C123.66,91.14,124.27,90.5,124.27,88.89z"/>
			<path class="st11" d="M131.27,91.25c0.07,0.11,0.08,0.2-0.01,0.31c-0.23,0.26-1.09,0.58-2.1,0.58c-2.19,0-2.79-1.51-2.79-3.17
				c0-1.83,0.71-3.3,2.63-3.3c1.44,0,2.54,0.83,2.54,2.55c0,0.91-0.31,1.19-1.29,1.19h-2.43c0.09,1,0.45,1.73,1.49,1.73
				c0.46,0,0.91-0.14,1.4-0.3c0.24-0.07,0.27-0.02,0.31,0.02L131.27,91.25z M129.64,88.41c0.37,0,0.46-0.05,0.46-0.4
				c0-0.7-0.42-1.34-1.04-1.34c-0.87,0-1.17,0.81-1.25,1.74H129.64z"/>
			<path class="st11" d="M136.13,91.99c-0.15,0-0.23-0.07-0.23-0.24v-3.34c0-0.91-0.26-1.73-1.08-1.73c-0.84,0-1.25,0.63-1.25,1.85
				v3.23c0,0.17-0.07,0.24-0.24,0.24h-0.95c-0.17,0-0.24-0.07-0.24-0.24v-5.69c0-0.17,0.07-0.24,0.24-0.24h0.59
				c0.17,0,0.2,0.07,0.24,0.24l0.12,0.49h0.02c0.28-0.56,0.97-0.87,1.58-0.87c1.32,0,2.38,0.84,2.38,2.32v3.75
				c0,0.17-0.07,0.24-0.23,0.24H136.13z"/>
			<path class="st11" d="M138.31,84.64c-0.17,0-0.24-0.07-0.24-0.24v-0.95c0-0.17,0.07-0.24,0.24-0.24h0.95
				c0.17,0,0.24,0.07,0.24,0.24v0.95c0,0.17-0.07,0.24-0.24,0.24H138.31z M138.31,91.99c-0.17,0-0.24-0.07-0.24-0.24v-5.69
				c0-0.17,0.07-0.24,0.24-0.24h0.95c0.17,0,0.24,0.07,0.24,0.24v5.69c0,0.17-0.07,0.24-0.24,0.24H138.31z"/>
			<path class="st11" d="M145.01,91.25c0.07,0.11,0.08,0.2-0.01,0.31c-0.23,0.26-1.09,0.58-2.1,0.58c-2.19,0-2.79-1.51-2.79-3.17
				c0-1.83,0.71-3.3,2.63-3.3c1.44,0,2.54,0.83,2.54,2.55c0,0.91-0.31,1.19-1.29,1.19h-2.43c0.09,1,0.45,1.73,1.49,1.73
				c0.46,0,0.91-0.14,1.4-0.3c0.24-0.07,0.27-0.02,0.31,0.02L145.01,91.25z M143.39,88.41c0.37,0,0.46-0.05,0.46-0.4
				c0-0.7-0.42-1.34-1.04-1.34c-0.87,0-1.17,0.81-1.25,1.74H143.39z"/>
			<path class="st11" d="M146.14,91.99c-0.17,0-0.24-0.07-0.24-0.24v-5.69c0-0.17,0.07-0.24,0.24-0.24h0.59
				c0.17,0,0.17,0.08,0.24,0.24l0.12,0.45h0.02c0.51-0.78,1.1-0.77,1.61-0.78c0.17,0,0.21,0.01,0.21,0.18v0.89
				c0,0.31-0.26,0.18-0.49,0.18c-0.74,0-1.13,0.4-1.13,1.15v3.63c0,0.17-0.07,0.24-0.24,0.24H146.14z"/>
			<path class="st11" d="M149.55,91.99c-0.17,0-0.24-0.07-0.24-0.24v-5.69c0-0.17,0.07-0.24,0.24-0.24h0.95
				c0.17,0,0.24,0.07,0.24,0.24v5.69c0,0.17-0.07,0.24-0.24,0.24H149.55z M150.09,83.42c0.09-0.14,0.2-0.2,0.37-0.2h1.08
				c0.17,0,0.19,0.05,0.06,0.17l-1.32,1.23c-0.13,0.12-0.25,0.17-0.42,0.17h-0.37c-0.17,0-0.2-0.06-0.12-0.2L150.09,83.42z"/>
			<path class="st11" d="M155.67,91.99c-0.17,0-0.2-0.07-0.24-0.24l-0.12-0.49h-0.02c-0.31,0.57-0.91,0.87-1.71,0.87
				c-1.2,0-2.23-0.69-2.23-2.15c0-1.53,1.13-1.93,2.48-1.93h1.22c-0.06-0.5-0.31-1.39-1.29-1.39c-0.38,0-0.81,0.13-1.34,0.3
				c-0.23,0.07-0.27,0.02-0.31-0.02l-0.25-0.38c-0.07-0.11-0.08-0.2,0.01-0.31c0.24-0.26,1.1-0.58,2.05-0.58
				c2.05,0,2.57,1.47,2.57,3.17v2.92c0,0.17-0.07,0.24-0.24,0.24H155.67z M155.08,89.05h-1.25c-0.63,0-1.04,0.33-1.04,0.9
				c0,0.47,0.28,1.19,1.13,1.19c0.72,0,1.16-0.53,1.16-1.74V89.05z"/>
		</g>
	</g>
</g>
</svg>
