<?xml version="1.0" encoding="utf-8"?>
<!-- Generator: Adobe Illustrator 26.3.1, SVG Export Plug-In . SVG Version: 6.00 Build 0)  -->
<svg version="1.1" xmlns="http://www.w3.org/2000/svg" xmlns:xlink="http://www.w3.org/1999/xlink" x="0px" y="0px"
	 viewBox="0 0 210 204" style="enable-background:new 0 0 210 204;" xml:space="preserve">
<style type="text/css">
	.st0{fill:#B0242A;}
	.st1{fill:#4D4D4D;}
	.st2{fill:#AC2A2D;}
	.st3{opacity:0.79;fill:#AC2A2D;}
	.st4{opacity:0.8;fill:#B0242A;}
	.st5{fill:#FFFFFF;}
	.st6{fill:#CDAE80;}
	.st7{opacity:0.8;clip-path:url(#SVGID_00000049904427946798483510000004445181768857946767_);}
	.st8{fill:#CEAF80;}
	.st9{fill:#1F140F;}
	.st10{fill:#C64144;}
	.st11{fill:#CEAE80;}
	.st12{fill:#9E3733;}
	.st13{fill:#CAD1D9;}
	.st14{opacity:0.26;}
</style>
<g id="Capa_2">
</g>
<g id="Capa_3">
</g>
<g id="Capa_1">
	<g>
		<circle class="st0" cx="105" cy="102" r="86.5"/>
		<g id="rzz9cN.tif_00000049198791844770124320000014869452639092321425_">
			<g>
				<path class="st5" d="M96.94,116.25c0-1.14,0.09-2.28-0.02-3.41c-0.18-1.77,0.39-3.09,1.73-4.27c1.53-1.36,1.46-1.09,0.01-2.54
					C86.84,94.2,75.01,82.38,63.19,70.56c-1.84-1.84-1.83-2.57,0.03-4.44c1.61-1.61,3.2-3.23,4.83-4.82
					c1.18-1.15,2.22-1.16,3.39-0.03c1.11,1.07,2.23,2.13,3.26,3.28c0.7,0.78,1.13,0.67,1.83-0.03c5.89-5.94,11.81-11.83,17.71-17.75
					c1.32-1.32,2.79-2.16,4.72-2.15c1.72,0.01,3.17,0.58,4.38,1.79c2.12,2.12,4.28,4.21,6.36,6.38c0.73,0.76,1.15,0.81,1.92,0.02
					c4.18-4.26,8.42-8.46,12.64-12.67c1.55-1.54,2.45-1.54,4.01,0.01c8.73,8.72,17.45,17.44,26.17,26.17
					c1.56,1.56,1.57,2.47,0.03,4.01c-6.54,6.55-13.08,13.09-19.63,19.63c-2.9,2.89-6.45,2.89-9.35,0.02
					c-2.11-2.08-4.21-4.17-6.28-6.29c-0.55-0.56-0.9-0.59-1.47-0.01c-3.71,3.75-7.44,7.49-11.19,11.19
					c-0.63,0.62-0.55,0.98,0.03,1.56c2.1,2.11,2.08,2.13,4.22,0.05c1.37-1.33,2.41-1.3,3.73,0.11c1.14,1.21,1.86,2.66,2.25,4.26
					c0.15,0.64,0.3,0.91,1.04,0.64c0.87-0.32,1.65,0.01,2.31,0.67c5.04,5.06,10.1,10.1,15.14,15.16c1.15,1.16,1.11,2.2-0.02,3.4
					c-0.03,0.03-0.06,0.06-0.09,0.09c-2.05,2.14-2.05,2.14,0.02,4.21c5.11,5.11,10.22,10.21,15.32,15.32c1.61,1.62,1.61,2.48,0,4.09
					c-1.63,1.64-3.26,3.28-4.91,4.9c-1.32,1.3-2.32,1.3-3.66-0.03c-5.54-5.53-11.1-11.06-16.6-16.63c-0.83-0.85-1.29-0.81-2.09,0.02
					c-2.91,3-5.87,5.95-8.86,8.87c-0.65,0.64-0.7,1.06,0,1.65c0.59,0.49,1.12,1.06,1.63,1.64c0.8,0.91,0.84,1.99,0,2.85
					c-2.4,2.47-4.87,4.89-7.29,7.34c-0.45,0.46-0.78,0.37-1.23-0.03c-2.45-2.15-2.46-2.14-0.19-4.41c1.15-1.15,2.25-2.34,3.46-3.43
					c0.79-0.71,0.66-1.14-0.04-1.83c-5.59-5.54-11.16-11.11-16.7-16.7c-0.73-0.73-1.12-0.69-1.83,0.02
					c-5.83,5.88-11.69,11.72-17.55,17.58c-2.84,2.84-5.7,5.66-8.51,8.54c-0.67,0.69-1.09,0.68-1.76,0
					c-2.04-2.06-2.07-2.04-0.04-4.07c8.9-8.9,17.79-17.79,26.69-26.69c1.47-1.47,1.81-1.52,3.66-0.51c0.29,0.16,0.51,0.21,0.76-0.03
					c0.77-0.76,1.63-1.4,1.51-2.73C96.83,119.26,96.94,117.75,96.94,116.25z M123.28,72.26c-0.2-0.21-0.43-0.48-0.69-0.74
					c-7.09-7.09-14.17-14.18-21.26-21.26c-1.91-1.9-2.8-1.91-4.68-0.04c-7.66,7.66-15.31,15.33-23,22.97
					c-0.77,0.76-0.85,1.19-0.03,2c7.47,7.4,14.9,14.83,22.3,22.29c0.84,0.85,1.28,0.95,2.18,0.04c6.5-6.59,13.05-13.12,19.61-19.64
					c1.72-1.71,3.32-3.57,5.26-5.05C123.13,72.7,123.31,72.59,123.28,72.26z M130.24,87.82c0.88,0.05,1.47-0.59,2.08-1.19
					c5.79-5.79,11.57-11.59,17.39-17.36c0.71-0.7,0.76-1.1,0.02-1.83c-7.57-7.51-15.11-15.06-22.62-22.62
					c-0.69-0.7-1.08-0.65-1.74,0.02c-3.58,3.64-7.18,7.27-10.84,10.83c-0.85,0.83-0.69,1.26,0.05,2
					c5.3,5.25,10.57,10.53,15.84,15.82c2.78,2.79,2.76,6.36,0.01,9.18c-0.65,0.67-1.32,1.32-1.9,2.05
					c-0.49,0.61-0.57,1.34-0.16,2.05C128.76,87.47,129.34,87.85,130.24,87.82z M112.88,103.44c-0.03-0.4-0.04-0.81-0.1-1.21
					c-0.06-0.43-0.04-1.01-0.51-1.15c-0.41-0.12-0.65,0.41-0.92,0.69c-3.16,3.15-6.3,6.32-9.48,9.45c-0.63,0.62-0.89,1.26-0.87,2.14
					c0.05,2.27-0.12,4.55,0.05,6.81c0.18,2.43-0.24,4.49-2.36,5.95c-0.62,0.43-0.52,0.85,0,1.37c3.78,3.74,7.53,7.5,11.28,11.27
					c0.5,0.51,0.84,0.59,1.38,0.04c3.11-3.15,6.23-6.27,9.38-9.38c0.55-0.54,0.48-0.88-0.03-1.38c-1.97-1.93-3.91-3.89-5.86-5.84
					c-0.19-0.19-0.36-0.53-0.68-0.43c-0.34,0.11-0.21,0.48-0.24,0.75c-0.27,2.49-1.24,4.69-2.79,6.64
					c-0.92,1.15-1.02,1.15-2.04,0.15c-0.43-0.43-0.84-0.88-1.29-1.29c-0.5-0.45-0.44-0.83-0.06-1.35c2.93-4.06,2.83-7.93-0.27-11.79
					c-1.14-1.42-1.1-2.27,0.21-3.6c1.08-1.1,2.19-2.18,3.26-3.28C112.17,106.74,112.95,105.27,112.88,103.44z M124.41,125.62
					c0.14-0.12,0.35-0.25,0.51-0.42c1.87-1.86,3.71-3.74,5.6-5.57c0.61-0.59,0.3-0.93-0.14-1.38c-3.73-3.71-7.46-7.43-11.16-11.17
					c-0.54-0.54-0.89-0.64-1.47-0.04c-1.77,1.84-3.58,3.63-5.41,5.42c-0.51,0.5-0.59,0.84-0.04,1.38c3.8,3.76,7.57,7.55,11.35,11.33
					C123.84,125.36,124.01,125.61,124.41,125.62z M130.17,125.96c-0.22,0.16-0.42,0.28-0.59,0.44c-0.5,0.48-0.94,1.02-1.47,1.45
					c-0.82,0.65-0.7,1.12,0.01,1.82c4.53,4.47,9.01,8.98,13.5,13.47c2.23,2.23,2.21,2.21,4.38-0.03c0.57-0.58,0.53-0.92-0.02-1.47
					c-5.06-5.02-10.09-10.07-15.13-15.11C130.65,126.34,130.42,126.18,130.17,125.96z M128.2,78.16c-0.04-1.7-1.7-2.57-3.09-1.68
					c-0.5,0.32-0.93,0.78-1.36,1.2c-2.53,2.52-2.53,2.52,0.14,4.88c0.06,0.05,0.12,0.11,0.18,0.17c0.3,0.31,0.56,0.27,0.79-0.08
					c0.71-1.1,1.75-1.9,2.62-2.86C127.92,79.28,128.23,78.74,128.2,78.16z M72.85,68.63c-0.72-0.77-1.15-1.24-1.59-1.69
					c-1.5-1.51-1.51-1.52-2.98-0.02c-1.66,1.69-1.66,1.19,0.02,2.89c1.45,1.48,1.45,1.45,2.99-0.05
					C71.72,69.34,72.26,69.05,72.85,68.63z M102.88,104.19c0.43-0.11,0.65-0.47,0.93-0.74c2-1.97,1.96-1.93,0.05-3.94
					c-0.79-0.83-1.24-0.77-2,0.02c-1.89,1.99-1.93,1.96,0.08,3.94C102.23,103.74,102.45,104.11,102.88,104.19z"/>
			</g>
		</g>
	</g>
</g>
</svg>
