<?xml version="1.0" encoding="utf-8"?>
<!-- Generator: Adobe Illustrator 26.3.1, SVG Export Plug-In . SVG Version: 6.00 Build 0)  -->
<svg version="1.1" xmlns="http://www.w3.org/2000/svg" xmlns:xlink="http://www.w3.org/1999/xlink" x="0px" y="0px"
	 viewBox="0 0 93 93" style="enable-background:new 0 0 93 93;" xml:space="preserve">
<style type="text/css">
	.st0{fill:#B0242A;}
	.st1{fill:#4D4D4D;}
	.st2{fill:#AC2A2D;}
	.st3{opacity:0.79;fill:#AC2A2D;}
	.st4{opacity:0.8;fill:#B0242A;}
	.st5{fill:#FFFFFF;}
	.st6{fill:#CDAE80;}
	.st7{opacity:0.8;clip-path:url(#SVGID_00000132797909846978869480000006738726354077857714_);}
	.st8{fill:#CEAF80;}
	.st9{opacity:0.8;clip-path:url(#SVGID_00000110461231684346906660000003371050452657945773_);}
	.st10{opacity:0.63;}
	.st11{fill:#1F140F;}
	.st12{fill:#C64144;}
	.st13{fill:#CEAE80;}
	.st14{fill:#9E3733;}
	.st15{fill:#CAD1D9;}
	.st16{opacity:0.26;}
</style>
<g id="Capa_2">
</g>
<g id="Capa_3">
</g>
<g id="Capa_1">
	<g id="gkGVZc.tif_00000098218843584910880100000011945023554955809418_">
		<g>
			<path class="st2" d="M46.47,86.86c-12.76,0-25.51,0-38.27,0c-0.38,0-0.77,0.02-1.13-0.08c-0.73-0.2-1.09-0.99-0.84-1.77
				c0.1-0.31,0.26-0.6,0.4-0.89c6.25-12.5,12.51-24.99,18.73-37.5c0.54-1.1,1.22-1.52,2.46-1.51c5.42,0.06,10.83,0.03,16.25,0.02
				c0.26,0,0.68,0.2,0.77-0.19c0.1-0.41-0.33-0.49-0.62-0.62c-4.81-2.11-7.66-5.77-8.1-10.98c-0.47-5.53,1.87-9.8,6.68-12.59
				c7.64-4.44,17.72,0.39,19.21,9.14c1.04,6.11-2.16,11.97-7.86,14.38c-0.1,0.04-0.2,0.09-0.3,0.13c-0.27,0.1-0.55,0.25-0.46,0.57
				c0.09,0.31,0.42,0.17,0.64,0.17c3.82,0.01,7.64,0.03,11.46-0.01c1-0.01,1.6,0.34,2.05,1.24c6.32,12.68,12.65,25.35,19.01,38
				c0.67,1.34,0.23,2.55-1.56,2.54C72.15,86.84,59.31,86.86,46.47,86.86z M61.97,60.73c2.9,0,5.8,0,8.69,0
				c0.89,0,0.91-0.03,0.5-0.85c-1.87-3.76-3.77-7.5-5.62-11.27c-0.28-0.56-0.6-0.79-1.24-0.78c-3.55,0.03-7.1,0.04-10.64,0
				c-0.77-0.01-1.08,0.22-1.24,0.98c-0.57,2.67-1.2,5.33-1.82,7.99c-0.29,1.26-1.26,1.81-2.18,1.26c-0.51-0.31-0.65-0.84-0.77-1.37
				c-0.53-2.29-1.05-4.59-1.58-6.88c-0.46-1.98-0.47-1.94-2.47-1.97c-0.72-0.01-0.92,0.23-0.92,0.93c0.03,3.01,0,6.01,0.03,9.02
				c0.01,0.71-0.22,1.23-0.72,1.72c-2.01,1.98-3.98,3.99-5.99,5.96c-0.4,0.39-0.42,0.64-0.01,1.04c1.59,1.55,3.17,3.11,4.71,4.71
				c0.5,0.52,0.77,0.52,1.28,0c3.23-3.28,6.51-6.52,9.75-9.79c0.49-0.5,1.01-0.73,1.72-0.72C56.28,60.75,59.12,60.73,61.97,60.73z
				 M49.05,50.31c0.29-0.36,0.31-0.63,0.37-0.89c0.44-1.9,0.9-3.79,1.31-5.7c0.19-0.91,0.62-1.49,1.56-1.76
				c3.68-1.04,7.61-5.07,7.08-10.87c-0.45-4.96-5.17-9.7-11.23-9.17c-4.86,0.43-9.92,5.06-9.22,11.24c0.49,4.32,2.84,7.23,6.89,8.72
				c1.06,0.39,1.56,0.98,1.78,2.05C48,46.02,48.53,48.09,49.05,50.31z M49.71,84.13c-1.82-1.82-3.47-3.46-5.11-5.11
				c-1.03-1.03-1.02-1.63,0.02-2.67c3.22-3.22,6.44-6.43,9.64-9.66c0.54-0.54,1.1-0.77,1.87-0.77c5.44,0.02,10.89,0.01,16.33,0.01
				c1.73,0,1.69,0.02,0.98-1.53c-0.33-0.71-0.74-0.98-1.54-0.97c-5.8,0.03-11.59,0.03-17.39,0.01c-0.65,0-1.11,0.2-1.56,0.66
				c-3.41,3.44-6.85,6.87-10.28,10.29c-1.07,1.07-1.65,1.06-2.73-0.02c-2.36-2.35-4.71-4.71-7.07-7.07c-1-1-1-1.61,0-2.61
				c2.18-2.19,4.36-4.37,6.56-6.55c0.37-0.37,0.54-0.75,0.54-1.28c-0.02-2.46,0-4.93-0.01-7.39c-0.01-1.82,0.28-1.57-1.66-1.63
				c-0.65-0.02-0.84,0.22-0.83,0.85c0.03,2.17-0.01,4.33,0.02,6.5c0.01,0.67-0.18,1.19-0.66,1.66c-2.01,1.98-3.99,3.98-5.98,5.97
				c-0.89,0.88-1.55,0.88-2.44,0c-1.31-1.3-2.61-2.6-3.91-3.9c-1.42-1.42-1.4-1.41-2.32,0.36c-0.32,0.61-0.26,0.99,0.23,1.47
				c3.03,2.98,6.03,6,9.03,9.01c1.16,1.16,1.17,1.7,0.02,2.85c-3.6,3.6-7.2,7.2-10.8,10.81c-0.2,0.2-0.46,0.36-0.57,0.73
				c1.02,0,1.96-0.03,2.91,0.01c0.59,0.03,1.01-0.17,1.43-0.59c3.01-3.04,6.04-6.06,9.07-9.09c1.03-1.03,1.63-1.02,2.67,0.02
				c3.03,3.02,6.05,6.05,9.08,9.08c0.24,0.24,0.45,0.56,0.86,0.56C47.24,84.13,48.37,84.13,49.71,84.13z M68.35,84.14
				c4.52,0,9.05,0,13.57,0c1.37,0,1.31,0.03,0.77-1.26c-0.41-0.97-0.99-1.25-2.03-1.25c-8.78,0.04-17.55,0.03-26.33,0.02
				c-0.27,0-0.54-0.01-0.81-0.01c-0.37,0-0.51-0.18-0.55-0.54c-0.25-2.05-0.15-2.17,1.85-2.17c0.14,0,0.27-0.02,0.41,0
				c0.62,0.09,0.99-0.17,1.29-0.72c1.36-2.44,2.75-4.85,4.15-7.27c0.86-1.49,2.07-1.48,2.94,0.03c0.45,0.77,0.9,1.54,1.32,2.33
				c0.24,0.45,0.44,0.55,0.82,0.12c0.49-0.54,1.02-1.04,1.54-1.56c1.1-1.09,1.9-1.02,2.76,0.26c1.37,2.05,2.75,4.09,4.1,6.16
				c0.3,0.45,0.62,0.67,1.18,0.66c1.49-0.04,2.98-0.01,4.47-0.01c0.85,0,0.86-0.03,0.47-0.82c-1.45-2.91-2.92-5.81-4.35-8.73
				c-0.26-0.53-0.56-0.76-1.18-0.75c-5.93,0.02-11.86,0.02-17.8,0.01c-0.49,0-0.87,0.12-1.23,0.48c-2.67,2.69-5.35,5.38-8.05,8.04
				c-0.4,0.4-0.42,0.64-0.01,1.04c1.8,1.76,3.58,3.54,5.34,5.34c0.41,0.42,0.84,0.59,1.43,0.59C59.08,84.13,63.72,84.14,68.35,84.14
				z M13,84.14c0.76,0,1.52-0.02,2.27,0.01c0.49,0.02,0.87-0.11,1.23-0.47c3.97-3.99,7.95-7.98,11.95-11.94
				c0.45-0.45,0.39-0.69-0.03-1.1c-2.43-2.39-4.83-4.82-7.24-7.23c-0.7-0.7-0.7-0.7-1.13,0.17c-2.43,4.87-4.87,9.73-7.3,14.6
				c-0.87,1.74-1.73,3.49-2.62,5.23c-0.28,0.54-0.25,0.78,0.44,0.75C11.38,84.11,12.19,84.14,13,84.14z M34.76,51.99
				c0-1.43-0.02-2.41,0.01-3.38c0.02-0.55-0.16-0.78-0.74-0.77c-1.84,0.03-3.68,0.02-5.51,0.01c-0.39,0-0.66,0.1-0.85,0.47
				c-1.01,2.04-2.02,4.07-3.05,6.09c-0.17,0.34-0.14,0.6,0.13,0.87c1.5,1.49,2.99,2.97,4.47,4.48c0.3,0.3,0.52,0.29,0.8-0.01
				c0.75-0.78,1.46-1.61,2.3-2.28C34.27,55.92,35.43,54.11,34.76,51.99z M41.9,84.12c-2.26-2.26-4.39-4.37-6.49-6.51
				c-0.45-0.46-0.71-0.46-1.16,0c-1.97,2.01-3.97,3.99-5.96,5.98c-0.14,0.14-0.38,0.23-0.32,0.52
				C32.54,84.12,37.11,84.12,41.9,84.12z M62.08,78.94c0.73,0,1.46-0.01,2.19,0c0.46,0.01,0.61-0.15,0.36-0.57
				c-0.73-1.26-1.45-2.53-2.17-3.79c-0.27-0.47-0.47-0.31-0.67,0.05c-0.71,1.24-1.42,2.48-2.13,3.72c-0.29,0.5-0.05,0.6,0.41,0.59
				C60.73,78.93,61.4,78.94,62.08,78.94z M69.53,78.94c0.34,0,0.61,0.01,0.88,0c0.21-0.01,0.48,0.1,0.6-0.11
				c0.13-0.22-0.11-0.39-0.22-0.56c-0.49-0.75-0.99-1.49-1.48-2.23c-0.91-1.37-0.92-1.38-2.05-0.21c-0.2,0.2-0.59,0.39-0.44,0.7
				c0.38,0.77,0.78,1.56,1.3,2.23C68.47,79.18,69.11,78.86,69.53,78.94z"/>
			<path class="st2" d="M24.48,40.96c0,1.76,0.01,3.52,0,5.28c-0.01,1.13-0.46,1.59-1.57,1.6c-1.57,0.01-3.14,0.01-4.71,0
				c-1.17-0.01-1.63-0.45-1.63-1.62c-0.01-3.47-0.03-6.93,0.01-10.4c0.01-0.8-0.25-1.02-1.02-0.99c-1.7,0.05-3.41-0.01-5.12,0.03
				c-0.72,0.01-1.25-0.23-1.64-0.84c-0.77-1.18-1.55-2.35-2.34-3.52c-0.41-0.61-0.41-1.21-0.01-1.82c0.8-1.19,1.59-2.39,2.38-3.59
				c0.36-0.54,0.84-0.79,1.5-0.78c1.79,0.02,3.58-0.01,5.36,0.02c0.61,0.01,0.89-0.13,0.87-0.81c-0.06-1.98,0.21-1.66-1.69-1.68
				c-2.33-0.02-4.66-0.01-6.99,0c-0.66,0-1.26-0.1-1.59-0.74c-0.32-0.64-0.09-1.2,0.28-1.74c0.48-0.69,0.9-1.42,1.41-2.09
				c0.37-0.48,0.4-0.86,0.02-1.36c-0.54-0.71-1-1.48-1.5-2.22c-0.36-0.53-0.51-1.08-0.19-1.67c0.31-0.57,0.84-0.7,1.45-0.7
				c2.63,0.01,5.25-0.02,7.88,0.02c0.73,0.01,0.95-0.23,0.91-0.93c-0.05-0.92-0.02-1.84-0.01-2.76c0.02-1.02,0.48-1.51,1.49-1.52
				c1.65-0.02,3.3-0.02,4.96,0c0.96,0.01,1.45,0.5,1.47,1.45c0.02,1,0.03,2,0,3.01c-0.02,0.58,0.21,0.75,0.77,0.74
				c1.79-0.02,3.58,0.01,5.36-0.02c0.72-0.01,1.25,0.23,1.64,0.84c0.75,1.16,1.52,2.3,2.3,3.45c0.45,0.66,0.46,1.3,0.01,1.96
				c-0.77,1.14-1.54,2.29-2.3,3.45c-0.39,0.6-0.91,0.86-1.63,0.85c-1.73-0.03-3.47,0.02-5.2-0.02c-0.68-0.02-0.97,0.15-0.95,0.9
				c0.06,1.85-0.19,1.58,1.61,1.59c2.33,0.01,4.66,0.01,6.99,0c0.68,0,1.32,0.05,1.67,0.74c0.34,0.67,0.06,1.25-0.33,1.81
				c-0.48,0.69-0.91,1.41-1.41,2.09c-0.32,0.43-0.35,0.78-0.02,1.23c0.53,0.71,1,1.48,1.5,2.22c0.37,0.55,0.58,1.12,0.23,1.75
				c-0.33,0.6-0.9,0.7-1.53,0.7c-2.6-0.01-5.2,0.02-7.8-0.02c-0.73-0.01-0.93,0.23-0.91,0.93C24.51,37.5,24.48,39.23,24.48,40.96z
				 M20.19,14.04c-2.82,0-5.63-0.01-8.45,0.01c-0.47,0-1.16-0.23-1.37,0.14c-0.21,0.38,0.36,0.83,0.64,1.21
				c0.6,0.82,0.61,1.59-0.02,2.38c-0.13,0.17-0.26,0.35-0.36,0.54c-0.12,0.23-0.46,0.43-0.3,0.7c0.15,0.24,0.5,0.11,0.76,0.11
				c6.07,0.01,12.13,0,18.2,0.02c0.61,0,0.99-0.18,1.33-0.69c1.23-1.87,1.22-1.85-0.01-3.73c-0.34-0.52-0.73-0.69-1.34-0.68
				C26.26,14.06,23.22,14.04,20.19,14.04z M20.85,32.13c2.82,0,5.63,0.01,8.45-0.01c0.47,0,1.16,0.23,1.37-0.14
				c0.21-0.38-0.36-0.83-0.64-1.21c-0.6-0.81-0.61-1.58,0.01-2.37c0.13-0.17,0.26-0.35,0.36-0.54c0.12-0.23,0.46-0.43,0.3-0.7
				c-0.15-0.25-0.5-0.11-0.76-0.11c-6.07-0.01-12.13,0-18.2-0.02c-0.61,0-0.99,0.17-1.33,0.69c-1.23,1.87-1.22,1.85,0,3.73
				c0.34,0.52,0.73,0.69,1.33,0.69C14.78,32.11,17.81,32.13,20.85,32.13z M21.76,39.99c0-1.19,0.01-2.38,0-3.57
				c-0.01-1.76,0.23-1.52-1.54-1.58c-0.77-0.03-0.96,0.25-0.95,0.98c0.04,2.54,0,5.09,0.02,7.63c0.01,1.91-0.34,1.66,1.74,1.7
				c0.58,0.01,0.75-0.22,0.74-0.77C21.74,42.91,21.76,41.45,21.76,39.99z M20.58,8.84c-1.3,0-1.3,0-1.31,1.16
				c0,1.32,0,1.32,1.14,1.33c1.34,0,1.34,0,1.35-1.2C21.76,8.84,21.76,8.84,20.58,8.84z M19.28,23.08c0,1.24,0,1.24,1.14,1.24
				c1.34,0,1.34,0,1.34-1.2c0-1.28,0-1.28-1.26-1.28C19.28,21.84,19.28,21.84,19.28,23.08z"/>
			<path class="st2" d="M55.59,32.25c-1.23,0-1.23,0-1.51-1.26c-0.42-1.87-2.03-3.49-3.93-3.76c-0.85-0.12-1.13-0.43-1.1-1.28
				c0.06-1.78,0.1-1.88,1.84-1.43c3.21,0.82,5.2,2.87,5.95,6.1C57.2,32.17,57.13,32.25,55.59,32.25z"/>
			<path class="st2" d="M53.9,38.4c-0.26-0.01-0.37-0.18-0.48-0.33c-0.37-0.49-0.88-0.95-1.07-1.51c-0.23-0.67,0.63-0.89,0.91-1.38
				c0.2-0.34,0.31-0.97,0.83-0.86c0.73,0.15,1.43,0.48,2.06,0.91c0.16,0.11,0.09,0.3,0.02,0.44c-0.46,1.03-1.16,1.87-2.03,2.59
				C54.07,38.33,53.97,38.37,53.9,38.4z"/>
			<path class="st2" d="M23.17,15.22c1.31,0,1.31,0,1.31,1.41c0,1.31,0,1.31-1.49,1.31c-1.23,0-1.23,0-1.23-1.49
				C21.76,15.22,21.76,15.22,23.17,15.22z"/>
			<path class="st2" d="M28.28,17.94c-1.32,0-1.32,0-1.32-1.4c0-1.32,0-1.32,1.4-1.32c1.47,0.01,1.31-0.1,1.32,1.48
				C29.69,17.94,29.68,17.94,28.28,17.94z"/>
			<path class="st2" d="M12.64,30.95c-1.28,0-1.28,0-1.28-1.44c0-1.28,0-1.28,1.44-1.28c1.28,0,1.28,0,1.28,1.44
				C14.08,30.95,14.08,30.95,12.64,30.95z"/>
			<path class="st2" d="M19.28,29.62c0,1.32,0,1.32-1.4,1.32c-1.47-0.01-1.31,0.1-1.32-1.48c-0.01-1.24,0-1.24,1.48-1.24
				C19.28,28.23,19.28,28.23,19.28,29.62z"/>
		</g>
	</g>
</g>
</svg>
