<?xml version="1.0" encoding="utf-8"?>
<!-- Generator: Adobe Illustrator 26.3.1, SVG Export Plug-In . SVG Version: 6.00 Build 0)  -->
<svg version="1.1" xmlns="http://www.w3.org/2000/svg" xmlns:xlink="http://www.w3.org/1999/xlink" x="0px" y="0px"
	 viewBox="0 0 78 167" style="enable-background:new 0 0 78 167;" xml:space="preserve">
<style type="text/css">
	.st0{fill:#B0242A;}
	.st1{fill:#4D4D4D;}
	.st2{fill:#AC2A2D;}
	.st3{opacity:0.79;fill:#AC2A2D;}
	.st4{opacity:0.8;fill:#B0242A;}
	.st5{fill:#FFFFFF;}
	.st6{fill:#CDAE80;}
	.st7{opacity:0.8;clip-path:url(#SVGID_00000010310122909524725270000017351442936737159084_);}
	.st8{fill:#CEAF80;}
	.st9{opacity:0.8;clip-path:url(#SVGID_00000062156684416341006470000011857112442908730775_);}
	.st10{opacity:0.63;}
	.st11{fill:#1F140F;}
	.st12{fill:#C64144;}
	.st13{fill:#CEAE80;}
	.st14{fill:#9E3733;}
	.st15{fill:#CAD1D9;}
	.st16{opacity:0.26;}
</style>
<g id="Capa_2">
</g>
<g id="Capa_3">
	<g>
		<path class="st0" d="M44.77,161.5H4.43V5.5h40.33c15.91,0,28.8,12.89,28.8,28.8v98.4C73.57,148.61,60.67,161.5,44.77,161.5z"/>
		<g>
			<g>
				<g>
					<g>
						<g>
							<path class="st5" d="M37.17,68.34V53.63h4.94l0.74-5.73h-5.68v-3.66c0-1.66,0.46-2.79,2.84-2.79l3.04,0v-5.13
								c-0.53-0.07-2.33-0.23-4.42-0.23c-4.38,0-7.37,2.67-7.37,7.58v4.23H26.3v5.73h4.95v14.71H37.17L37.17,68.34z"/>
						</g>
						<g>
							<g>
								<g>
									<path class="st5" d="M40.78,133.72h-12.2c-5.42,0-9.82-4.41-9.82-9.82v-10.75c0-5.42,4.41-9.82,9.82-9.82h12.2
										c5.41,0,9.82,4.41,9.82,9.82v10.75C50.6,129.31,46.19,133.72,40.78,133.72z M28.58,105.5c-4.21,0-7.64,3.43-7.64,7.64
										v10.75c0,4.21,3.43,7.64,7.64,7.64h12.2c4.21,0,7.64-3.43,7.64-7.64v-10.75c0-4.21-3.43-7.64-7.64-7.64H28.58z"/>
								</g>
								<g>
									<path class="st5" d="M34.68,127.26c-4.82,0-8.74-3.92-8.74-8.74c0-4.82,3.92-8.74,8.74-8.74c4.82,0,8.74,3.92,8.74,8.74
										C43.42,123.34,39.5,127.26,34.68,127.26z M34.68,111.96c-3.62,0-6.56,2.94-6.56,6.56c0,3.62,2.94,6.56,6.56,6.56
										c3.62,0,6.56-2.94,6.56-6.56C41.24,114.9,38.29,111.96,34.68,111.96z"/>
								</g>
								<g>
									<path class="st5" d="M45.1,110.05c0,1-0.81,1.81-1.81,1.81c-1,0-1.81-0.81-1.81-1.81c0-1,0.81-1.81,1.81-1.81
										C44.29,108.23,45.1,109.04,45.1,110.05z"/>
								</g>
							</g>
						</g>
					</g>
				</g>
			</g>
		</g>
	</g>
</g>
<g id="Capa_1">
</g>
</svg>
