<?xml version="1.0" encoding="utf-8"?>
<!-- Generator: Adobe Illustrator 26.3.1, SVG Export Plug-In . SVG Version: 6.00 Build 0)  -->
<svg version="1.1" xmlns="http://www.w3.org/2000/svg" xmlns:xlink="http://www.w3.org/1999/xlink" x="0px" y="0px"
	 viewBox="0 0 93 93" style="enable-background:new 0 0 93 93;" xml:space="preserve">
<style type="text/css">
	.st0{fill:#B0242A;}
	.st1{fill:#4D4D4D;}
	.st2{fill:#AC2A2D;}
	.st3{opacity:0.79;fill:#AC2A2D;}
	.st4{opacity:0.8;fill:#B0242A;}
	.st5{fill:#FFFFFF;}
	.st6{fill:#CDAE80;}
	.st7{opacity:0.8;clip-path:url(#SVGID_00000119796383598222843710000010270957382186494654_);}
	.st8{fill:#CEAF80;}
	.st9{opacity:0.8;clip-path:url(#SVGID_00000080903427664596601000000012991556147048448669_);}
	.st10{opacity:0.63;}
	.st11{fill:#1F140F;}
	.st12{fill:#C64144;}
	.st13{fill:#CEAE80;}
	.st14{fill:#9E3733;}
	.st15{fill:#CAD1D9;}
	.st16{opacity:0.26;}
</style>
<g id="Capa_2">
</g>
<g id="Capa_3">
</g>
<g id="Capa_1">
	<g id="zexxkO.tif_00000022522045522095848290000017268074310097997209_">
		<g>
			<path class="st2" d="M32.38,75.58c6.29,0,12.58,0,18.87,0c0.24,0,0.56,0.12,0.7-0.1c0.15-0.25-0.14-0.44-0.27-0.64
				c-2.47-3.93-3.62-8.2-3.47-12.85c0.06-1.66,0.22-1.45-1.46-1.45c-9.14-0.01-18.27,0-27.41,0c-1.21,0-1.86-0.54-1.87-1.52
				c-0.01-0.83,0.56-1.47,1.39-1.54c0.3-0.03,0.59-0.01,0.89-0.01c9.14,0,18.27,0,27.41,0c1.05,0,1.05,0,1.06-1.05
				c0-1.04,0-2.08,0-3.12c0-1.07,0-1.07-1.04-1.07c-7.35,0-14.71,0-22.06,0c-2.01,0-4.01,0.01-6.02-0.01
				c-1.03-0.01-1.67-0.66-1.63-1.61c0.03-0.77,0.57-1.37,1.33-1.45c0.29-0.03,0.59-0.02,0.89-0.02c9.16,0,18.32,0,27.49,0
				c0.57,0,1.04,0.04,1.19-0.73c0.11-0.57,0.68-0.79,1.23-0.96c3.38-1.05,6.75-2.13,10.14-3.16c0.66-0.2,0.9-0.51,0.9-1.2
				c-0.02-5.87-0.02-11.74,0-17.61c0-0.73-0.24-0.93-0.95-0.92c-2.57,0.03-5.15,0.02-7.73,0.01c-2.38-0.01-4.16-1.62-4.33-4
				c-0.2-2.67-0.04-5.35-0.08-8.02c-0.02-1.05-0.01-1.05-1.01-1.05c-10.97,0-21.94,0-32.91,0c-1.67,0-2.14,0.48-2.14,2.19
				c0,7.63,0,15.25,0,22.88c0,1.18-0.58,1.84-1.57,1.82c-0.8-0.01-1.41-0.57-1.49-1.37c-0.02-0.22-0.01-0.45-0.01-0.67
				c0-7.7,0-15.4,0-23.1c0-3,1.81-4.83,4.79-4.83c11.81,0,23.62,0.01,35.43-0.01c0.83,0,1.45,0.24,2.04,0.83
				c4.08,4.11,8.18,8.21,12.29,12.29c0.59,0.59,0.83,1.21,0.83,2.04c-0.02,6.17-0.01,12.33-0.01,18.5c0,0.95,0.03,1.01,0.86,0.66
				c1.22-0.51,2.36-0.39,3.6,0.01c4.9,1.59,9.82,3.09,14.73,4.63c1.37,0.43,1.62,0.77,1.62,2.18c0,4.68,0.02,9.36-0.01,14.04
				c-0.05,9.92-7.86,19.19-17.61,20.97c-0.66,0.12-1.28-0.02-1.91-0.17c-3.66-0.89-6.88-2.62-9.66-5.15
				c-0.49-0.44-0.97-0.58-1.6-0.58c-13.59,0.01-27.19,0.01-40.78,0.01c-2.27,0-4.06-1.4-4.53-3.53c-0.07-0.33-0.09-0.69-0.09-1.03
				c0-7.85,0-15.7,0-23.55c0-0.17-0.01-0.35,0.02-0.52c0.09-0.79,0.72-1.33,1.52-1.34c0.8,0,1.45,0.54,1.52,1.33
				c0.05,0.52,0.02,1.04,0.02,1.56c0,7.26,0,14.51,0,21.77c0,1.78,0.45,2.23,2.25,2.23C19.95,75.58,26.17,75.58,32.38,75.58z
				 M81.51,57.47c0-2.45-0.02-4.45,0.01-6.46c0.01-0.59-0.16-0.88-0.75-1.06c-4.61-1.41-9.21-2.86-13.82-4.3
				c-0.34-0.11-0.66-0.13-1.01-0.02c-4.65,1.46-9.3,2.91-13.96,4.35c-0.51,0.16-0.7,0.41-0.69,0.95c0.03,2.52,0.01,5.05,0.01,7.57
				c0,2.23-0.16,4.47,0.18,6.67c1.14,7.57,5.31,12.77,12.44,15.6c1.68,0.67,3.25,0.63,4.95,0.01c6.94-2.49,12.1-9.05,12.54-16.63
				C81.55,61.77,81.44,59.4,81.51,57.47z M50.72,13.96c0,2.09-0.03,4.21,0.01,6.32c0.01,0.76,0.56,1.17,1.43,1.2
				c0.76,0.03,1.53,0.01,2.3,0.01c1.27,0,2.55,0,3.83,0C55.75,18.96,53.26,16.48,50.72,13.96z"/>
			<path class="st2" d="M36.82,45.08c-1.14,0-2.28,0.01-3.42,0c-1.08-0.01-1.65-0.58-1.67-1.65c-0.02-1.19-0.03-2.38,0-3.56
				c0.01-0.54-0.16-0.75-0.72-0.73c-1.19,0.03-2.38,0.02-3.56,0c-1.08-0.01-1.65-0.58-1.66-1.65c-0.01-2.3-0.01-4.6,0-6.9
				c0.01-1.07,0.58-1.63,1.67-1.64c1.16-0.01,2.33-0.03,3.49,0.01c0.64,0.02,0.81-0.22,0.79-0.82c-0.04-1.14-0.02-2.28-0.01-3.41
				c0.01-1.17,0.56-1.71,1.75-1.72c2.25-0.01,4.5-0.01,6.76,0c1.13,0.01,1.69,0.56,1.7,1.69c0.01,1.19,0.02,2.38,0,3.56
				c-0.01,0.51,0.16,0.71,0.68,0.7c1.19-0.03,2.38-0.02,3.56,0c1.13,0.01,1.7,0.56,1.7,1.69c0.01,2.28,0.01,4.55,0,6.83
				c-0.01,1.12-0.57,1.68-1.7,1.69c-1.16,0.01-2.33,0.03-3.49-0.01c-0.6-0.02-0.77,0.2-0.76,0.78c0.03,1.16,0.02,2.33,0.01,3.49
				c-0.01,1.12-0.58,1.67-1.71,1.68C39.1,45.09,37.96,45.08,36.82,45.08z M31.34,36.06c0.59,0,1.19-0.01,1.78,0
				c1.12,0.02,1.68,0.57,1.69,1.7c0.01,1.19,0.02,2.38,0,3.56c-0.01,0.52,0.18,0.7,0.69,0.68c0.86-0.03,1.73-0.03,2.6,0
				c0.57,0.02,0.8-0.15,0.78-0.75c-0.04-1.14-0.02-2.28-0.01-3.41c0.01-1.23,0.54-1.77,1.76-1.78c1.16-0.01,2.33-0.02,3.49,0
				c0.5,0.01,0.72-0.14,0.7-0.67c-0.03-0.91-0.03-1.83,0-2.75c0.01-0.49-0.18-0.65-0.66-0.64c-1.19,0.02-2.37,0.01-3.56,0
				c-1.17-0.01-1.72-0.57-1.73-1.74c-0.01-1.16-0.03-2.33,0.01-3.49c0.02-0.56-0.19-0.74-0.73-0.72c-0.89,0.03-1.78,0.03-2.67,0
				c-0.55-0.02-0.67,0.23-0.66,0.72c0.02,1.16,0.01,2.33,0,3.49c-0.01,1.18-0.56,1.73-1.72,1.74c-1.19,0.01-2.38,0.02-3.56,0
				c-0.47-0.01-0.68,0.15-0.66,0.64c0.02,0.94,0.02,1.88,0,2.82c-0.01,0.46,0.18,0.62,0.62,0.6C30.11,36.04,30.72,36.05,31.34,36.06
				z"/>
			<path class="st2" d="M27.85,68.85c-2.92,0-5.84,0-8.76,0c-0.65,0-1.16-0.25-1.45-0.84c-0.26-0.53-0.23-1.06,0.09-1.55
				c0.31-0.47,0.76-0.68,1.33-0.68c5.92,0,11.83,0,17.75,0.01c0.95,0,1.56,0.63,1.57,1.52c0.01,0.92-0.62,1.54-1.61,1.55
				C33.79,68.86,30.82,68.85,27.85,68.85z"/>
			<path class="st2" d="M9.93,45.07c-0.88-0.01-1.53-0.68-1.52-1.57C8.43,42.62,9.11,41.98,10,42c0.85,0.02,1.48,0.67,1.48,1.53
				C11.48,44.42,10.82,45.08,9.93,45.07z"/>
			<path class="st2" d="M54.17,59.31c0-2.2-0.01-3.96,0-5.72c0-1,0.31-1.45,1.27-1.75c3.42-1.08,6.85-2.14,10.27-3.21
				c0.51-0.16,1.02-0.12,1.53,0.04c3.33,1.04,6.66,2.08,9.99,3.13c1.14,0.36,1.41,0.75,1.41,1.95c0,3.22,0.01,6.44,0,9.65
				c-0.04,6.63-4.87,13.01-11.22,14.9c-0.69,0.21-1.35,0.23-2.03-0.01c-6.15-2.19-9.86-6.49-11.05-12.91
				C53.94,63.24,54.27,61.04,54.17,59.31z M75.56,59.32c0-1.54-0.02-2.8,0.01-4.07c0.01-0.5-0.16-0.76-0.65-0.9
				c-2.67-0.81-5.34-1.65-8.01-2.48c-0.32-0.1-0.62-0.12-0.94-0.02c-2.71,0.85-5.43,1.7-8.15,2.53c-0.43,0.13-0.59,0.36-0.58,0.8
				c0.06,2.89-0.15,5.79,0.12,8.68c0.5,5.45,3.39,9.14,8.4,11.24c0.44,0.18,0.85,0.18,1.29,0c4.19-1.69,6.91-4.68,8.07-9.05
				C75.74,63.75,75.53,61.39,75.56,59.32z"/>
			<path class="st2" d="M72.7,60.15c0.02,0.47-0.21,0.86-0.56,1.21c-1.93,1.93-3.84,3.86-5.78,5.77c-0.86,0.85-1.69,0.85-2.54,0.02
				c-1.07-1.03-2.12-2.09-3.15-3.15c-0.71-0.73-0.74-1.72-0.13-2.33c0.64-0.64,1.52-0.65,2.26,0.02c0.62,0.57,1.22,1.17,1.79,1.78
				c0.36,0.38,0.62,0.36,0.97-0.01c1.42-1.45,2.86-2.88,4.31-4.31c0.71-0.7,1.37-0.81,2.07-0.4C72.46,59.06,72.71,59.52,72.7,60.15z
				"/>
		</g>
	</g>
</g>
</svg>
