<?xml version="1.0" encoding="utf-8"?>
<!-- Generator: Adobe Illustrator 26.3.1, SVG Export Plug-In . SVG Version: 6.00 Build 0)  -->
<svg version="1.1" xmlns="http://www.w3.org/2000/svg" xmlns:xlink="http://www.w3.org/1999/xlink" x="0px" y="0px"
	 viewBox="0 0 93 93" style="enable-background:new 0 0 93 93;" xml:space="preserve">
<style type="text/css">
	.st0{fill:#B0242A;}
	.st1{fill:#4D4D4D;}
	.st2{fill:#AC2A2D;}
	.st3{opacity:0.79;fill:#AC2A2D;}
	.st4{opacity:0.8;fill:#B0242A;}
	.st5{fill:#FFFFFF;}
	.st6{fill:#CDAE80;}
	.st7{opacity:0.8;clip-path:url(#SVGID_00000019651913652129204550000002886975122272679320_);}
	.st8{fill:#CEAF80;}
	.st9{opacity:0.8;clip-path:url(#SVGID_00000027602263487962057600000012654311370645804212_);}
	.st10{opacity:0.63;}
	.st11{fill:#1F140F;}
	.st12{fill:#C64144;}
	.st13{fill:#CEAE80;}
	.st14{fill:#9E3733;}
	.st15{fill:#CAD1D9;}
	.st16{opacity:0.26;}
</style>
<g id="Capa_2">
</g>
<g id="Capa_3">
</g>
<g id="Capa_1">
	<g id="Elf1Fa.tif_00000127013652643159388970000001756430677782368938_">
		<g>
			<path class="st2" d="M38.61,87.01c-8.91,0-17.82,0-26.73,0c-1.62,0-1.97-0.35-1.97-1.95c0-0.71-0.01-1.41,0-2.12
				c0.03-2.18,1.71-3.84,3.89-3.88c1.8-0.03,1.5,0.28,1.92-1.54c4.26-18.18,8.51-36.36,12.78-54.54c0.67-2.85,2.49-4.59,5.36-5.14
				c0.72-0.14,0.84-0.43,0.84-1.06c-0.02-2,0.9-3.39,2.57-4.02c0.41-0.16,0.84-0.27,1.27-0.21c0.77,0.1,1.32-0.22,1.91-0.69
				c5.45-4.39,11.72-6.32,18.67-5.79C71.02,7,80.8,16.09,82.74,27.89c2.36,14.34-7.39,27.86-21.73,30.12
				c-1.02,0.16-2.04,0.34-3.07,0.29c-0.7-0.03-0.81,0.2-0.66,0.86c1.29,5.41,2.55,10.83,3.82,16.25c0.2,0.87,0.45,1.74,0.59,2.62
				c0.13,0.77,0.43,1.16,1.28,1.05c0.48-0.06,0.98-0.05,1.46,0.08c1.77,0.46,2.96,1.97,2.99,3.81c0.01,0.79,0.01,1.58,0,2.36
				c-0.01,1.23-0.45,1.68-1.67,1.68c-3.78,0.01-7.55,0-11.33,0C49.15,87.01,43.88,87.01,38.61,87.01z M59.74,26.9
				c3.02,0,6.03-0.02,9.05,0.01c2.13,0.01,3.8,1.71,3.84,3.84c0.01,0.84,0.01,1.68,0,2.53c-0.01,2.56-1.61,4.17-4.17,4.17
				c-4.89,0.01-9.78,0-14.67,0c-1.57,0-1.57,0-1.21,1.55c1.24,5.29,2.48,10.57,3.71,15.86c0.12,0.51,0.3,0.75,0.86,0.72
				c3.51-0.15,6.89-0.85,10.06-2.42c8.85-4.39,14.34-13.96,12.83-24.4c-0.76-5.27-3.04-9.81-6.91-13.44
				c-6.11-5.71-13.35-7.66-21.53-5.9c-3.34,0.72-6.35,2.22-9.04,4.33c-0.3,0.23-0.64,0.45-0.37,0.93c0.4,0.71,0.51,1.49,0.44,2.29
				c-0.05,0.6,0.21,0.76,0.77,0.86c2.87,0.55,4.68,2.27,5.41,5.1c0.25,0.97,0.5,1.95,0.67,2.94c0.14,0.78,0.46,1.07,1.3,1.05
				C53.77,26.86,56.75,26.89,59.74,26.9z M20.51,79.06c0.97,0.2,1.99-0.2,3.02-0.78c2.55-1.44,5.15-2.81,7.73-4.2
				c7.62-4.12,15.24-8.25,22.88-12.34c0.63-0.34,0.75-0.7,0.58-1.35c-0.47-1.84-0.88-3.7-1.32-5.55c-0.25-1.04-0.24-1.03-1.19-0.52
				c-5.49,2.98-10.99,5.95-16.48,8.93c-4.97,2.69-9.94,5.38-14.92,8.05c-0.63,0.34-0.97,0.76-1.11,1.48c-0.28,1.44-0.66,2.86-1,4.28
				C18.24,79.06,18.24,79.06,20.51,79.06z M20.96,67.47c0,0.1-0.08,0.31,0.1,0.38c0.29,0.11,0.51-0.13,0.74-0.25
				c5.07-2.74,10.13-5.48,15.19-8.22c4.94-2.68,9.88-5.36,14.83-8.02c0.53-0.28,0.66-0.56,0.51-1.15c-0.49-1.89-0.9-3.8-1.35-5.7
				c-0.29-1.24-0.29-1.24-1.4-0.63c-8,4.33-15.97,8.71-24.03,12.94c-1.76,0.93-2.96,1.97-3.03,4.02c0,0.05-0.03,0.1-0.04,0.16
				C21.97,63.13,21.47,65.27,20.96,67.47z M24.02,54.4c0.25-0.07,0.33-0.08,0.4-0.11c8.36-4.52,16.72-9.04,25.09-13.55
				c0.42-0.23,0.48-0.48,0.38-0.92c-0.47-1.92-0.9-3.86-1.35-5.79c-0.24-1.05-0.24-1.07-1.17-0.56c-6.19,3.34-12.33,6.77-18.59,9.98
				c-1.94,0.99-2.96,2.22-3.27,4.35C25.2,49.99,24.55,52.13,24.02,54.4z M28.22,78.92c0.01,0.05,0.02,0.09,0.03,0.14
				c5.1,0,10.21,0,15.31,0c0.37,0,0.69-0.14,1-0.31c4.08-2.21,8.17-4.42,12.26-6.61c0.44-0.24,0.54-0.48,0.42-0.97
				c-0.51-2.05-1.01-4.11-1.45-6.18c-0.16-0.74-0.37-0.8-1-0.46c-4.96,2.7-9.93,5.38-14.9,8.06C35.99,74.71,32.11,76.82,28.22,78.92
				z M27.15,41.07c0.39,0.04,0.59-0.16,0.82-0.29c2.25-1.21,4.49-2.43,6.74-3.65c4.09-2.21,8.17-4.42,12.26-6.63
				c0.38-0.21,0.67-0.39,0.53-0.93c-0.51-2.05-0.96-4.12-1.46-6.18c-0.21-0.84-0.33-0.88-1.1-0.46c-4.95,2.67-9.89,5.35-14.85,8.01
				c-0.41,0.22-0.69,0.47-0.8,0.94C28.59,34.93,27.87,37.96,27.15,41.07z M38.66,84.28c3.39,0,6.79,0,10.18,0
				c4.97,0,9.94-0.02,14.91,0.02c0.78,0.01,1-0.26,0.93-0.99c-0.09-1.09-0.58-1.52-1.88-1.52c-16.11,0-32.21,0-48.32,0
				c-0.33,0-0.65-0.01-0.96,0.11c-0.68,0.26-1.03,1-0.89,1.9c0.13,0.81,0.77,0.46,1.17,0.46C22.1,84.29,30.38,84.28,38.66,84.28z
				 M59.81,29.62c-2.85,0-5.71,0.01-8.56-0.01c-0.65,0-0.89,0.15-0.69,0.85c0.32,1.15,0.59,2.32,0.82,3.49
				c0.12,0.6,0.41,0.79,1,0.78c2.17-0.03,4.35-0.01,6.52-0.01c3.1,0,6.2,0.01,9.29,0c1.21,0,1.67-0.49,1.7-1.68
				c0.01-0.52,0.01-1.03,0-1.55c-0.01-1.41-0.45-1.85-1.86-1.86C65.3,29.62,62.56,29.62,59.81,29.62z M43.19,20.68
				c-0.47-0.09-0.71-0.17-0.94-0.18c-2.44-0.01-4.89-0.05-7.33,0.01c-1.73,0.05-3.1,1.1-3.55,2.64c-0.37,1.25-0.62,2.53-0.92,3.79
				c-0.04,0.16-0.1,0.35,0.05,0.46c0.15,0.11,0.3-0.03,0.44-0.1c0.88-0.47,1.77-0.95,2.65-1.43C36.71,24.19,39.83,22.49,43.19,20.68
				z M50.18,78.91c0.02,0.05,0.05,0.1,0.07,0.15c2.69,0,5.38-0.01,8.07,0.01c0.55,0,0.73-0.18,0.58-0.74c-0.26-1-0.5-2-0.71-3.01
				c-0.1-0.49-0.31-0.58-0.73-0.35c-0.74,0.41-1.48,0.8-2.22,1.2C53.56,77.08,51.87,78,50.18,78.91z M38.57,17.76
				c1.32,0,1.32,0,1.33-0.76c0.01-1.02-0.48-1.68-1.24-1.69c-0.76-0.01-1.21,0.66-1.26,1.67C37.35,18.04,38.09,17.7,38.57,17.76z"/>
		</g>
	</g>
</g>
</svg>
