<?xml version="1.0" encoding="utf-8"?>
<!-- Generator: Adobe Illustrator 26.3.1, SVG Export Plug-In . SVG Version: 6.00 Build 0)  -->
<svg version="1.1" xmlns="http://www.w3.org/2000/svg" xmlns:xlink="http://www.w3.org/1999/xlink" x="0px" y="0px"
	 viewBox="0 0 306.59 307.71" style="enable-background:new 0 0 306.59 307.71;" xml:space="preserve">
<style type="text/css">
	.st0{fill:#B0242A;}
	.st1{fill:#4D4D4D;}
	.st2{fill:#AC2A2D;}
	.st3{opacity:0.79;fill:#AC2A2D;}
	.st4{opacity:0.8;fill:#B0242A;}
	.st5{fill:#FFFFFF;}
	.st6{fill:#CDAE80;}
	.st7{opacity:0.8;clip-path:url(#SVGID_00000063610879465231960470000009035041382843319717_);}
	.st8{fill:#CEAF80;}
	.st9{opacity:0.63;}
	.st10{fill:#1F140F;}
	.st11{fill:#C64144;}
	.st12{fill:#CEAE80;}
	.st13{fill:#9E3733;}
	.st14{fill:#CAD1D9;}
	.st15{opacity:0.26;}
</style>
<g id="Capa_2">
</g>
<g id="Capa_3">
</g>
<g id="Capa_1">
	<g>
		<g>
			<path class="st5" d="M196.61,39.32c9.57,5.68,19.05,11.52,28.75,16.96c3.4,1.91,4.46,4.17,4.39,7.95
				c-0.39,21.05-0.58,42.1-0.7,63.15c-0.02,3.51-1.12,5.7-4.35,7.42c-9.8,5.24-19.34,10.98-29.15,16.2
				c-3.79,2.02-5.24,4.66-5.28,8.84c-0.35,35.3-0.93,70.59-1.17,105.89c-0.03,4.76-1.45,7.46-5.73,9.56
				c-6.64,3.25-13.04,7.02-19.41,10.81c-4.29,2.56-5.22,1.18-5.16-3.29c0.67-43.86,1.77-87.73,1.42-131.59
				c-0.1-12.08,3.77-18.51,14.42-22.89c7.16-2.95,13.56-7.7,20.47-11.31c3.01-1.58,4.16-3.49,4.13-6.86
				c-0.08-9.16-0.38-18.38,0.5-27.47c0.63-6.55-2.92-8.91-7.59-11.46c-7.93-4.33-7.84-4.47-7.92,4.66
				c-0.07,7.02-0.28,14.04-0.21,21.06c0.03,3.29-1.05,5.45-4.04,7.06c-7.2,3.89-14.28,8-21.35,12.12c-3.01,1.76-5.66,1.72-8.69-0.18
				c-7.11-4.46-14.33-8.75-21.64-12.89c-2.91-1.65-4.03-3.64-3.9-7.03c0.3-8.37,0.1-16.76,0.3-25.14c0.1-4.43-1.05-4.53-5.12-3.06
				c-9.33,3.37-12.82,9.27-11.73,19.05c0.73,6.53,0.27,13.25-0.16,19.85c-0.32,4.86,1.16,7.93,5.58,10.35
				c9.24,5.07,18.04,10.94,27.31,15.94c4.12,2.22,5.25,5.07,5.18,9.34c-0.62,36.65-1.15,73.31-1.68,109.96
				c-0.15,10.13-0.29,20.27-0.24,30.4c0.02,3.78-1.04,4.61-4.36,2.6c-7-4.27-14.02-8.52-21.16-12.55c-3.18-1.8-3.19-4.45-3.15-7.48
				c0.45-35.66,0.75-71.32,1.36-106.98c0.08-4.61-1.56-7.1-5.4-9.25c-9.37-5.24-18.48-10.95-27.81-16.25
				c-3.26-1.85-4.65-4.04-4.58-7.92c0.37-20.65,0.57-41.3,0.58-61.95c0-4.25,1.55-6.62,5.25-8.65c19.14-10.5,38.13-21.26,57.18-31.9
				c1.32-0.74,3.1-2.04,4.12-1.65c1.96,0.76,1.04,3.06,1.03,4.73c-0.16,16.56-0.19,33.12-0.66,49.67c-0.15,5.27,2.55,7.7,6.82,8.66
				c3.8,0.86,8.36-3.91,8.44-8.5c0.3-16.58,0.46-33.15,0.67-49.73c0.08-6.09,0.57-6.39,5.75-3.33c9.58,5.66,19.14,11.36,28.71,17.04
				C196.62,39.29,196.62,39.31,196.61,39.32z"/>
			<path class="st5" d="M273.71,172.37c-0.21,15-0.8,29.2-0.45,43.37c0.17,7.02-2.34,10.78-8.46,14.04
				c-17.88,9.52-35.39,19.74-53.06,29.66c-8.64,4.85-8.8,4.82-8.67-5.23c0.34-26.1,1.56-52.23,0.89-78.3
				c-0.27-10.38,4.41-15.44,11.97-19.82c7.58-4.39,15.11-8.89,22.95-12.76c4.26-2.1,5.29-5.15,5.32-9.32
				c0.12-17.73,0.34-35.45,0.47-53.18c0.03-3.66-1.29-8.73,1.54-10.42c2.95-1.77,6.51,2.04,9.59,3.97c4.79,3.01,9.66,5.9,14.62,8.61
				c3.27,1.79,4.63,4.14,4.55,7.99c-0.44,20.06-0.79,40.12-0.81,60.19c0,5.17-1.68,8.06-6.35,10.47
				c-10.04,5.17-19.67,11.11-29.53,16.64c-3.09,1.73-4.27,4.1-4.14,7.65c0.21,6.03,0.07,12.08-0.04,18.12
				c-0.05,2.67-1.15,6.02,3.06,6.14c3.64,0.11,5.63-2.55,5.99-5.91c0.39-3.67,0.19-7.4,0.23-11.1c0.02-1.99,0.01-4.15,1.91-5.25
				C254.33,182.65,263.29,177.2,273.71,172.37z"/>
			<path class="st5" d="M64.84,241.72c-9.06-5.38-18.02-10.92-27.21-16.06c-4.18-2.34-6.2-5.02-6-10.12
				c0.52-13.23,0.37-26.48,0.61-39.72c0.1-5.78,1.15-6.37,6.12-3.5c6.58,3.81,13.01,7.89,19.62,11.66c3.06,1.74,4.56,3.95,4.25,7.55
				c-0.28,3.28-0.07,6.61-0.25,9.91c-0.27,4.79,3.66,5.52,6.71,6.87c1.77,0.78,2.29-0.98,2.33-2.4c0.21-8.17,0.42-16.34,0.49-24.5
				c0.02-2.69-2.13-3.99-4.18-5.21c-9.72-5.79-19.38-11.69-29.18-17.33c-3.55-2.04-5.42-4.42-5.35-8.77
				c0.33-20.44,0.48-40.88,0.49-61.33c0-4.52,1.82-7.09,5.82-9.07c6.28-3.11,12.32-6.71,18.35-10.29c4.11-2.43,6.03-2.18,5.92,3.3
				c-0.37,18.9-0.2,37.8-0.85,56.69c-0.21,6.18,1.07,10.09,6.87,13.11c9.5,4.95,18.44,10.96,27.8,16.19
				c3.85,2.15,4.85,5.14,4.78,9.13c-0.56,28.6-1.06,57.2-1.6,85.8c-0.04,2.24,1.06,5.08-1.41,6.41c-2.4,1.29-4.37-0.98-6.32-2.12
				c-9.26-5.42-18.46-10.93-27.68-16.4C64.92,241.58,64.88,241.65,64.84,241.72z"/>
		</g>
	</g>
</g>
</svg>
