<?xml version="1.0" encoding="UTF-8" standalone="no" ?>
<!DOCTYPE svg PUBLIC "-//W3C//DTD SVG 1.1//EN" "http://www.w3.org/Graphics/SVG/1.1/DTD/svg11.dtd">
<svg xmlns="http://www.w3.org/2000/svg" xmlns:xlink="http://www.w3.org/1999/xlink" version="1.1" width="30" height="30" viewBox="0 0 30 30" xml:space="preserve">
<desc>Created with Fabric.js 5.2.4</desc>
<defs>
</defs>
<rect x="0" y="0" width="100%" height="100%" fill="transparent"></rect>
<g transform="matrix(1 0 0 1 15 15)" id="4b04b515-5815-4faf-ace2-ae924541da16"  >
<rect style="stroke: none; stroke-width: 1; stroke-dasharray: none; stroke-linecap: butt; stroke-dashoffset: 0; stroke-linejoin: miter; stroke-miterlimit: 4; fill: rgb(255,255,255); fill-rule: nonzero; opacity: 1; visibility: hidden;" vector-effect="non-scaling-stroke"  x="-15" y="-15" rx="0" ry="0" width="30" height="30" />
</g>
<g transform="matrix(Infinity NaN NaN Infinity 0 0)" id="8be83b78-09b8-4f3d-9efe-114df303f441"  >
</g>
<g transform="matrix(0.42 0 0 0.42 15 15)"  >
<g style="" vector-effect="non-scaling-stroke"   >
		<g transform="matrix(1 0 0 1 0.95 0)"  >
<path style="stroke: none; stroke-width: 1; stroke-dasharray: none; stroke-linecap: butt; stroke-dashoffset: 0; stroke-linejoin: miter; stroke-miterlimit: 4; fill: rgb(191,0,34); fill-rule: nonzero; opacity: 1;" vector-effect="non-scaling-stroke"  transform=" translate(-154.25, -153.86)" d="M 196.61 39.32 C 206.18 45 215.66000000000003 50.84 225.36 56.28 C 228.76000000000002 58.19 229.82000000000002 60.45 229.75 64.23 C 229.36 85.28 229.17 106.33000000000001 229.05 127.38 C 229.03 130.89 227.93 133.07999999999998 224.70000000000002 134.79999999999998 C 214.9 140.04 205.36 145.77999999999997 195.55 150.99999999999997 C 191.76000000000002 153.01999999999998 190.31 155.65999999999997 190.27 159.83999999999997 C 189.92000000000002 195.14 189.34 230.42999999999998 189.10000000000002 265.72999999999996 C 189.07000000000002 270.48999999999995 187.65000000000003 273.18999999999994 183.37000000000003 275.28999999999996 C 176.73000000000005 278.53999999999996 170.33000000000004 282.30999999999995 163.96000000000004 286.09999999999997 C 159.67000000000004 288.65999999999997 158.74000000000004 287.28 158.80000000000004 282.80999999999995 C 159.47000000000003 238.94999999999993 160.57000000000005 195.07999999999993 160.22000000000003 151.21999999999994 C 160.12000000000003 139.13999999999993 163.99000000000004 132.70999999999995 174.64000000000001 128.32999999999993 C 181.8 125.37999999999992 188.20000000000002 120.62999999999992 195.11 117.01999999999992 C 198.12 115.43999999999993 199.27 113.52999999999993 199.24 110.15999999999993 C 199.16 100.99999999999993 198.86 91.77999999999993 199.74 82.68999999999993 C 200.37 76.13999999999993 196.82000000000002 73.77999999999993 192.15 71.22999999999993 C 184.22 66.89999999999993 184.31 66.75999999999993 184.23000000000002 75.88999999999993 C 184.16000000000003 82.90999999999993 183.95000000000002 89.92999999999992 184.02 96.94999999999993 C 184.05 100.23999999999994 182.97 102.39999999999993 179.98000000000002 104.00999999999993 C 172.78000000000003 107.89999999999993 165.70000000000002 112.00999999999993 158.63000000000002 116.12999999999994 C 155.62000000000003 117.88999999999994 152.97000000000003 117.84999999999994 149.94000000000003 115.94999999999993 C 142.83 111.48999999999994 135.61 107.19999999999993 128.3 103.05999999999993 C 125.39000000000001 101.40999999999993 124.27000000000001 99.41999999999993 124.4 96.02999999999993 C 124.7 87.65999999999993 124.5 79.26999999999992 124.7 70.88999999999993 C 124.8 66.45999999999992 123.65 66.35999999999993 119.58 67.82999999999993 C 110.25 71.19999999999993 106.75999999999999 77.09999999999992 107.85 86.87999999999992 C 108.58 93.40999999999993 108.11999999999999 100.12999999999992 107.69 106.72999999999993 C 107.37 111.58999999999993 108.85 114.65999999999994 113.27 117.07999999999993 C 122.50999999999999 122.14999999999992 131.31 128.01999999999992 140.57999999999998 133.01999999999992 C 144.7 135.23999999999992 145.82999999999998 138.08999999999992 145.76 142.35999999999993 C 145.14 179.00999999999993 144.60999999999999 215.66999999999993 144.07999999999998 252.31999999999994 C 143.92999999999998 262.44999999999993 143.79 272.5899999999999 143.83999999999997 282.7199999999999 C 143.85999999999999 286.4999999999999 142.79999999999998 287.3299999999999 139.47999999999996 285.31999999999994 C 132.47999999999996 281.04999999999995 125.45999999999997 276.79999999999995 118.31999999999996 272.7699999999999 C 115.13999999999996 270.9699999999999 115.12999999999997 268.31999999999994 115.16999999999996 265.2899999999999 C 115.61999999999996 229.6299999999999 115.91999999999996 193.9699999999999 116.52999999999996 158.3099999999999 C 116.60999999999996 153.69999999999987 114.96999999999996 151.2099999999999 111.12999999999995 149.0599999999999 C 101.75999999999995 143.81999999999988 92.64999999999995 138.1099999999999 83.31999999999995 132.8099999999999 C 80.05999999999995 130.9599999999999 78.66999999999994 128.7699999999999 78.73999999999995 124.88999999999989 C 79.10999999999996 104.2399999999999 79.30999999999995 83.58999999999989 79.31999999999995 62.939999999999884 C 79.31999999999995 58.689999999999884 80.86999999999995 56.31999999999989 84.56999999999995 54.289999999999885 C 103.70999999999995 43.789999999999885 122.69999999999996 33.02999999999989 141.74999999999994 22.389999999999887 C 143.06999999999994 21.64999999999989 144.84999999999994 20.349999999999888 145.86999999999995 20.73999999999989 C 147.82999999999996 21.49999999999989 146.90999999999994 23.799999999999887 146.89999999999995 25.46999999999989 C 146.73999999999995 42.02999999999989 146.70999999999995 58.58999999999989 146.23999999999995 75.13999999999989 C 146.08999999999995 80.40999999999988 148.78999999999996 82.83999999999989 153.05999999999995 83.79999999999988 C 156.85999999999996 84.65999999999988 161.41999999999996 79.88999999999989 161.49999999999994 75.29999999999988 C 161.79999999999995 58.719999999999885 161.95999999999995 42.149999999999885 162.16999999999993 25.569999999999887 C 162.24999999999994 19.479999999999887 162.73999999999992 19.179999999999886 167.91999999999993 22.23999999999989 C 177.49999999999994 27.89999999999989 187.05999999999995 33.59999999999989 196.62999999999994 39.27999999999989 C 196.62 39.29 196.62 39.31 196.61 39.32 z" stroke-linecap="round" />
</g>
		<g transform="matrix(1 0 0 1 85.72 12.41)"  >
<path style="stroke: none; stroke-width: 1; stroke-dasharray: none; stroke-linecap: butt; stroke-dashoffset: 0; stroke-linejoin: miter; stroke-miterlimit: 4; fill: rgb(191,0,34); fill-rule: nonzero; opacity: 1;" vector-effect="non-scaling-stroke"  transform=" translate(-239.01, -166.27)" d="M 273.71 172.37 C 273.5 187.37 272.90999999999997 201.57 273.26 215.74 C 273.43 222.76000000000002 270.92 226.52 264.8 229.78 C 246.92000000000002 239.3 229.41000000000003 249.52 211.74 259.44 C 203.10000000000002 264.29 202.94 264.26 203.07000000000002 254.21 C 203.41000000000003 228.11 204.63000000000002 201.98000000000002 203.96 175.91000000000003 C 203.69 165.53000000000003 208.37 160.47000000000003 215.93 156.09000000000003 C 223.51000000000002 151.70000000000005 231.04000000000002 147.20000000000005 238.88 143.33000000000004 C 243.14 141.23000000000005 244.17 138.18000000000004 244.2 134.01000000000005 C 244.32 116.28000000000004 244.54 98.56000000000004 244.67 80.83000000000004 C 244.7 77.17000000000004 243.38 72.10000000000004 246.20999999999998 70.41000000000004 C 249.15999999999997 68.64000000000004 252.71999999999997 72.45000000000005 255.79999999999998 74.38000000000004 C 260.59 77.39000000000004 265.46 80.28000000000004 270.41999999999996 82.99000000000004 C 273.68999999999994 84.78000000000004 275.04999999999995 87.13000000000004 274.96999999999997 90.98000000000003 C 274.53 111.04000000000003 274.17999999999995 131.10000000000002 274.15999999999997 151.17000000000002 C 274.15999999999997 156.34 272.47999999999996 159.23000000000002 267.80999999999995 161.64000000000001 C 257.7699999999999 166.81 248.13999999999993 172.75 238.27999999999994 178.28000000000003 C 235.18999999999994 180.01000000000002 234.00999999999993 182.38000000000002 234.13999999999996 185.93000000000004 C 234.34999999999997 191.96000000000004 234.20999999999995 198.01000000000005 234.09999999999997 204.05000000000004 C 234.04999999999995 206.72000000000003 232.94999999999996 210.07000000000005 237.15999999999997 210.19000000000003 C 240.79999999999995 210.30000000000004 242.78999999999996 207.64000000000001 243.14999999999998 204.28000000000003 C 243.53999999999996 200.61000000000004 243.33999999999997 196.88000000000002 243.37999999999997 193.18000000000004 C 243.39999999999998 191.19000000000003 243.38999999999996 189.03000000000003 245.28999999999996 187.93000000000004 C 254.33 182.65 263.29 177.2 273.71 172.37 z" stroke-linecap="round" />
</g>
		<g transform="matrix(1 0 0 1 -86.49 10.33)"  >
<path style="stroke: none; stroke-width: 1; stroke-dasharray: none; stroke-linecap: butt; stroke-dashoffset: 0; stroke-linejoin: miter; stroke-miterlimit: 4; fill: rgb(191,0,34); fill-rule: nonzero; opacity: 1;" vector-effect="non-scaling-stroke"  transform=" translate(-66.8, -164.18)" d="M 64.84 241.72 C 55.78 236.34 46.82000000000001 230.8 37.63 225.66 C 33.45 223.32 31.430000000000003 220.64 31.630000000000003 215.54 C 32.150000000000006 202.31 32 189.06 32.24 175.82 C 32.34 170.04 33.39 169.45 38.36 172.32 C 44.94 176.13 51.37 180.20999999999998 57.980000000000004 183.98 C 61.040000000000006 185.72 62.540000000000006 187.92999999999998 62.230000000000004 191.53 C 61.95 194.81 62.160000000000004 198.14000000000001 61.980000000000004 201.44 C 61.71 206.23 65.64 206.96 68.69 208.31 C 70.46 209.09 70.98 207.33 71.02 205.91 C 71.22999999999999 197.74 71.44 189.57 71.50999999999999 181.41 C 71.52999999999999 178.72 69.38 177.42 67.32999999999998 176.2 C 57.609999999999985 170.41 47.94999999999999 164.51 38.149999999999984 158.87 C 34.59999999999999 156.83 32.72999999999998 154.45000000000002 32.79999999999998 150.1 C 33.12999999999998 129.66 33.27999999999998 109.22 33.289999999999985 88.77 C 33.289999999999985 84.25 35.109999999999985 81.67999999999999 39.109999999999985 79.69999999999999 C 45.389999999999986 76.58999999999999 51.429999999999986 72.99 57.45999999999999 69.41 C 61.569999999999986 66.97999999999999 63.48999999999999 67.22999999999999 63.37999999999999 72.71 C 63.00999999999999 91.60999999999999 63.179999999999986 110.50999999999999 62.52999999999999 129.39999999999998 C 62.319999999999986 135.57999999999998 63.59999999999999 139.48999999999998 69.39999999999999 142.51 C 78.89999999999999 147.45999999999998 87.83999999999999 153.47 97.19999999999999 158.7 C 101.04999999999998 160.85 102.04999999999998 163.83999999999997 101.97999999999999 167.82999999999998 C 101.41999999999999 196.42999999999998 100.91999999999999 225.02999999999997 100.38 253.63 C 100.33999999999999 255.87 101.44 258.71 98.97 260.04 C 96.57 261.33000000000004 94.6 259.06 92.65 257.92 C 83.39 252.50000000000003 74.19 246.99 64.97 241.52 C 64.92 241.58 64.88 241.65 64.84 241.72 z" stroke-linecap="round" />
</g>
</g>
</g>
<g transform="matrix(NaN NaN NaN NaN 0 0)"  >
<g style=""   >
</g>
</g>
</svg>