<?xml version="1.0" encoding="utf-8"?>
<!-- Generator: Adobe Illustrator 26.3.1, SVG Export Plug-In . SVG Version: 6.00 Build 0)  -->
<svg version="1.1" xmlns="http://www.w3.org/2000/svg" xmlns:xlink="http://www.w3.org/1999/xlink" x="0px" y="0px"
	 viewBox="0 0 36 35" style="enable-background:new 0 0 36 35;" xml:space="preserve">
<style type="text/css">
	.st0{fill:#B0242A;}
	.st1{fill:#4D4D4D;}
	.st2{fill:#AC2A2D;}
	.st3{opacity:0.79;fill:#AC2A2D;}
	.st4{opacity:0.8;fill:#B0242A;}
	.st5{fill:#FFFFFF;}
	.st6{fill:#CDAE80;}
	.st7{opacity:0.8;clip-path:url(#SVGID_00000077318128464894900140000016434965497268437657_);}
	.st8{fill:#CEAF80;}
	.st9{opacity:0.63;}
	.st10{fill:#1F140F;}
	.st11{fill:#C64144;}
	.st12{fill:#CEAE80;}
	.st13{fill:#9E3733;}
	.st14{fill:#CAD1D9;}
	.st15{opacity:0.26;}
</style>
<g id="Capa_2">
</g>
<g id="Capa_3">
</g>
<g id="Capa_1">
	<path class="st13" d="M5.21,7.74c0-0.68,0.29-1.34,0.82-1.85C6.63,5.32,7.47,5,8.36,5h4.23c1.6,0,2.95,1.04,3.13,2.41
		c0.11,0.81,0.3,1.61,0.57,2.39c0.34,0.97,0.05,2.02-0.78,2.73l-1.71,1.48c1.79,2.84,4.53,5.22,7.81,6.77l1.71-1.48
		c0.82-0.71,2.03-0.97,3.15-0.67c0.9,0.24,1.82,0.4,2.76,0.5C30.8,19.29,32,20.45,32,21.84v3.67c0,0.76-0.37,1.5-1.03,2.01
		c-0.65,0.52-1.54,0.77-2.42,0.7c-3.03-0.24-5.96-0.94-8.7-2.07c-2.67-1.1-5.08-2.58-7.17-4.4c-2.1-1.82-3.8-3.91-5.07-6.22
		C6.3,13.16,5.5,10.62,5.22,7.99C5.21,7.9,5.21,7.82,5.21,7.74L5.21,7.74z"/>
</g>
</svg>
