<?xml version="1.0" encoding="UTF-8" standalone="no" ?>
<!DOCTYPE svg PUBLIC "-//W3C//DTD SVG 1.1//EN" "http://www.w3.org/Graphics/SVG/1.1/DTD/svg11.dtd">
<svg xmlns="http://www.w3.org/2000/svg" xmlns:xlink="http://www.w3.org/1999/xlink" version="1.1" width="1080" height="1080" viewBox="0 0 1080 1080" xml:space="preserve">
<desc>Created with Fabric.js 5.2.4</desc>
<defs>
</defs>
<g transform="matrix(1 0 0 1 540 540)" id="dd551df6-fa76-474e-80c2-5361a291f72e"  >
<rect style="stroke: none; stroke-width: 1; stroke-dasharray: none; stroke-linecap: butt; stroke-dashoffset: 0; stroke-linejoin: miter; stroke-miterlimit: 4; fill: rgb(255,255,255); fill-rule: nonzero; opacity: 1; visibility: hidden;" vector-effect="non-scaling-stroke"  x="-540" y="-540" rx="0" ry="0" width="1080" height="1080" />
</g>
<g transform="matrix(1 0 0 1 540 540)" id="1d02b640-6315-4296-9d64-2d8ac1dc0954"  >
</g>
<g transform="matrix(2.17 0 0 2.17 540 540)" id="17b93af4-5021-4681-8479-7e262e06d675"  >
<path style="stroke: rgb(0,0,0); stroke-width: 0; stroke-dasharray: none; stroke-linecap: butt; stroke-dashoffset: 0; stroke-linejoin: miter; stroke-miterlimit: 4; fill: rgb(176,36,42); fill-rule: nonzero; opacity: 1;" vector-effect="non-scaling-stroke"  transform=" translate(-242.61, -242.61)" d="M 242.607 0 C 108.629 0 0.001 108.628 0.001 242.606 C 0.001 376.582 108.629 485.212 242.607 485.212 C 376.58500000000004 485.212 485.211 376.581 485.211 242.606 C 485.212 108.628 376.585 0 242.607 0 z M 257.771 454.116 L 257.771 424.55899999999997 L 227.44400000000002 424.55899999999997 L 227.44400000000002 454.116 C 122.51900000000002 446.65799999999996 38.56100000000001 362.697 31.098000000000013 257.772 L 60.652000000000015 257.772 L 60.652000000000015 227.445 L 31.098 227.445 C 38.561 122.517 122.519 38.559 227.44400000000002 31.096000000000004 L 227.44400000000002 60.650000000000006 L 257.771 60.650000000000006 L 257.771 31.097 C 362.697 38.559 446.653 122.518 454.115 227.446 L 424.563 227.446 L 424.563 257.773 L 454.115 257.773 C 446.652 362.697 362.696 446.658 257.771 454.116 z M 354.226 178.163 C 356.298 181.77800000000002 355.056 186.429 351.444 188.531 L 271.35200000000003 234.758 C 272.043 237.335 272.934 239.824 272.934 242.60600000000002 C 272.934 259.36800000000005 259.353 272.93 242.60800000000003 272.93 C 225.85800000000003 272.93 212.28100000000003 259.368 212.28100000000003 242.606 L 129.98200000000003 195.103 C 122.72500000000002 190.9 120.23900000000003 181.62900000000002 124.42800000000003 174.37400000000002 C 128.60200000000003 167.08900000000003 137.88700000000003 164.603 145.14300000000003 168.80900000000003 L 227.91800000000003 216.60700000000003 C 232.32900000000004 214.12000000000003 237.15700000000004 212.28300000000002 242.60800000000003 212.28300000000002 C 251.07900000000004 212.28300000000002 258.70000000000005 215.77700000000002 264.21200000000005 221.40500000000003 L 343.86 175.38100000000003 C 347.416 173.277 352.064 174.521 354.226 178.163 z" stroke-linecap="round" />
</g>
<g transform="matrix(NaN NaN NaN NaN 0 0)"  >
<g style=""   >
</g>
</g>
</svg>