<?xml version="1.0" encoding="utf-8"?>
<!-- Generator: Adobe Illustrator 26.3.1, SVG Export Plug-In . SVG Version: 6.00 Build 0)  -->
<svg version="1.1" xmlns="http://www.w3.org/2000/svg" xmlns:xlink="http://www.w3.org/1999/xlink" x="0px" y="0px"
	 viewBox="0 0 210 204" style="enable-background:new 0 0 210 204;" xml:space="preserve">
<style type="text/css">
	.st0{fill:#B0242A;}
	.st1{fill:#4D4D4D;}
	.st2{fill:#AC2A2D;}
	.st3{opacity:0.79;fill:#AC2A2D;}
	.st4{opacity:0.8;fill:#B0242A;}
	.st5{fill:#FFFFFF;}
	.st6{fill:#CDAE80;}
	.st7{opacity:0.8;clip-path:url(#SVGID_00000150069860742833948660000014095565963833743277_);}
	.st8{fill:#CEAF80;}
	.st9{fill:#1F140F;}
	.st10{fill:#C64144;}
	.st11{fill:#CEAE80;}
	.st12{fill:#9E3733;}
	.st13{fill:#CAD1D9;}
	.st14{opacity:0.26;}
</style>
<g id="Capa_2">
</g>
<g id="Capa_3">
</g>
<g id="Capa_1">
	<g>
		<circle class="st0" cx="105" cy="102" r="86.5"/>
		<g id="_x38_LNRLI.tif_00000169525208117109884240000003551523134484725432_">
			<g>
				<path class="st5" d="M129.58,120.82c1.96,2.43,3.67,4.72,5.19,7.16c0.28,0.44,0.36,0.8,0.05,1.28
					c-4.41,6.74-9.48,12.88-16.07,17.64c-3.94,2.85-8.22,4.96-13.12,5.6c-4.47,0.59-8.69-0.3-12.72-2.19
					c-5.46-2.55-9.93-6.39-13.97-10.77c-2.86-3.11-5.39-6.49-7.72-10.02c-0.42-0.64-0.41-1.1,0-1.73c1.46-2.24,2.99-4.41,4.68-6.48
					c0.09-0.11,0.16-0.23,0.25-0.36c-0.33-0.23-0.66-0.12-0.96-0.12c-3.63-0.01-7.27,0-10.9-0.01c-1.16,0-1.16-0.01-1.16-1.17
					c0-16.82,0-33.64,0-50.46c0-1.3,0-1.3-1.28-1.3c-1.05,0-2.11-0.02-3.16,0.01c-0.59,0.01-0.85-0.18-0.84-0.8
					c0.03-1.26,0.03-2.52,0-3.78c-0.01-0.59,0.19-0.89,0.81-0.83c0.23,0.02,0.47,0,0.7,0c29.04,0,58.08,0,87.12,0
					c1.7,0,1.53-0.14,1.54,1.58c0.01,0.85,0,1.7,0,2.55c0,1.27,0,1.27-1.23,1.27c-1.03,0-2.05,0.05-3.08-0.01
					c-0.8-0.05-0.98,0.27-0.98,1.02c0.02,6.86,0.01,13.71,0.01,20.57c0,10.05,0,20.1,0,30.15c0,1.2,0,1.21-1.21,1.21
					c-3.6,0-7.21,0-10.81,0C130.41,120.82,130.1,120.82,129.58,120.82z M103,67.88c-11.13,0-22.27,0.01-33.4-0.01
					c-0.76,0-1.08,0.14-1.08,1.01c0.03,15.18,0.03,30.36,0,45.54c0,0.85,0.3,1.02,1.07,1.02c3.55-0.03,7.09-0.03,10.64,0
					c0.79,0.01,1.37-0.23,1.95-0.77c3.01-2.87,6.33-5.3,10.06-7.15c6.45-3.2,13.01-3.6,19.69-0.78c4.4,1.86,8.23,4.58,11.69,7.84
					c0.65,0.61,1.29,0.87,2.18,0.86c3.46-0.04,6.92-0.02,10.37-0.02c1.17,0,1.17,0,1.17-1.14c0-15.06,0-30.12,0-45.18
					c0-1.2,0-1.2-1.2-1.2C125.09,67.88,114.05,67.88,103,67.88z M103.29,147.2c0.53-0.05,1.38-0.09,2.22-0.22
					c3.06-0.5,5.83-1.74,8.41-3.41c5.8-3.75,10.3-8.81,14.35-14.32c0.39-0.53,0.18-0.89-0.14-1.32c-2.27-3.1-4.75-6.03-7.52-8.7
					c-2.98-2.85-6.2-5.36-9.97-7.1c-2.53-1.17-5.19-1.89-7.98-1.82c-3.82,0.1-7.26,1.45-10.47,3.46
					c-5.9,3.71-10.47,8.79-14.56,14.34c-0.32,0.44-0.26,0.79,0.04,1.18c0.9,1.16,1.75,2.35,2.68,3.48c3.7,4.47,7.73,8.57,12.81,11.5
					C96.19,146.03,99.43,147.15,103.29,147.2z"/>
				<path class="st5" d="M126.62,82.49c-0.44,0.13-0.61,0.42-0.83,0.64c-5.58,5.57-11.15,11.15-16.73,16.72
					c-0.85,0.85-0.85,0.85-1.7,0c-3.01-3-6.02-6-9-9.03c-0.54-0.55-0.83-0.56-1.38,0c-5.9,5.99-11.83,11.96-17.75,17.93
					c-0.8,0.81-0.81,0.81-1.63-0.01c-0.81-0.81-1.59-1.65-2.44-2.41c-0.62-0.55-0.37-0.87,0.08-1.33
					c6.03-6.07,12.05-12.15,18.08-18.23c1.18-1.19,2.36-2.37,3.53-3.55c0.8-0.8,0.8-0.8,1.63,0.03c3.05,3.05,6.1,6.09,9.13,9.15
					c0.4,0.4,0.66,0.53,1.13,0.06c4.5-4.53,9.03-9.04,13.54-13.56c0.1-0.1,0.18-0.21,0.38-0.46c-1.13,0-2.12-0.02-3.1,0.01
					c-0.63,0.02-0.9-0.19-0.88-0.85c0.04-1.26,0.03-2.52,0-3.78c-0.01-0.56,0.2-0.79,0.77-0.78c3.93,0.01,7.85,0.01,11.78,0
					c0.56,0,0.78,0.21,0.78,0.77c-0.01,3.93-0.01,7.85,0,11.78c0,0.57-0.22,0.78-0.78,0.77c-1.29-0.02-2.58-0.02-3.87,0
					c-0.57,0.01-0.78-0.23-0.77-0.78C126.64,84.55,126.62,83.54,126.62,82.49z"/>
				<path class="st5" d="M102.94,115.41c7.41,0,13.26,5.86,13.26,13.29c-0.01,7.36-5.88,13.21-13.25,13.21
					c-7.41,0-13.26-5.87-13.26-13.3C89.69,121.26,95.56,115.41,102.94,115.41z M110.75,128.65c-0.03-4.26-3.52-7.77-7.79-7.81
					c-4.22-0.04-7.94,3.62-7.84,7.85c0.11,4.61,3.63,7.79,7.88,7.79C107.29,136.48,110.78,132.86,110.75,128.65z"/>
				<path class="st5" d="M102.96,131.39c-0.87-0.1-1.93,0.34-2.49-0.19c-0.62-0.58-0.2-1.67-0.22-2.53
					c-0.02-0.84-0.36-1.9,0.16-2.47c0.57-0.62,1.66-0.2,2.53-0.22c0.84-0.02,1.9-0.36,2.47,0.16c0.62,0.57,0.2,1.66,0.22,2.53
					c0.02,0.84,0.36,1.9-0.16,2.47C104.89,131.76,103.8,131.25,102.96,131.39z"/>
			</g>
		</g>
	</g>
</g>
</svg>
